M48
;Layer_Color=9474304
;FILE_FORMAT=2:5
INCH
;TYPE=PLATED
T1F00S00C0.00787
T2F00S00C0.00984
T3F00S00C0.01181
T5F00S00C0.03937
T6F00S00C0.04331
T7F00S00C0.09843
;TYPE=NON_PLATED
T8F00S00C0.02953
%
T01
X0378700Y0535122
X0377361Y0536697
X0377874Y0543252
X0377047Y0544938
X0379224Y0544557
X0379606Y0546396
X0381059Y0547585
X0381715Y0545825
X0382657Y0541082
X0384330Y0540229
X0384656Y0542078
X0386873Y0537158
X0385275Y0535122
X0384522Y0550894
X0382655Y0550696
X0382637Y0552709
X0382452Y0554688
X0384315Y0554926
X0384538Y0553033
X0385172Y0559609
X0386775Y0558630
X0377243Y0558729
X0375223Y0558378
X0375456Y0556268
Y0553899
X0378731Y0560303
T02
X0545314Y0568811
X0548188Y0570111
X0533345Y0603851
X0534054Y0623646
X0540787Y0627071
T03
X0405512Y0393701
X0413386
X0417323Y0385827
X0425197
X0429134Y0377953
X0437008
X0440945Y0370079
X0448819Y0385827
X0456693
X0464567
X0468504Y0393701
X0460630
X0458503Y0394599
X0452756Y0393701
X0444882
X0434330Y0399953
X0437008Y0409449
X0440945Y0417323
X0448819
X0464567
X0466550Y0406977
X0468156Y0408583
X0464567Y0401575
X0468504Y0377953
X0460630
X0437008Y0425197
X0429134
X0422629Y0420426
X0421260Y0409449
X0405512
X0397638
X0401575Y0401575
X0409449
Y0417323
X0401575
X0393701
X0385827
Y0433071
X0377953
X0381890Y0440945
X0385827Y0448819
X0390629Y0449953
X0393778Y0448378
X0401575Y0448819
X0400708Y0454560
X0403582Y0454599
X0406416Y0454560
X0405512Y0440945
X0401575Y0433071
X0409449
X0405512Y0425197
X0397638
X0370079Y0448819
X0374016Y0456693
X0370079Y0464567
X0433071
X0440945
X0446534Y0462552
X0444566Y0447591
X0464251Y0459402
X0468188
X0484252Y0456693
X0488189Y0448819
X0490719Y0441375
Y0438226
Y0431933
X0496063Y0433071
X0503937
X0511811
X0507874Y0425197
X0497385Y0426000
X0495779Y0424394
X0485511Y0422394
X0483058Y0420032
X0480786
X0478515
X0472441Y0417323
X0469763Y0410189
X0476378Y0409449
X0479605Y0402315
X0472441Y0401575
X0468975Y0400741
X0470550Y0384205
X0474487Y0383811
X0478424Y0381843
X0478818Y0379087
X0483542Y0383811
X0483936Y0397197
X0488267Y0393654
X0492126Y0393701
X0496063Y0385827
X0507874Y0377953
X0515748
X0519685Y0385827
X0527559
X0531496Y0393701
X0535433Y0401575
X0543307
X0547244Y0409449
X0543307Y0417323
X0551181
X0547244Y0425197
X0538334Y0425256
X0531496Y0425197
X0523622
X0527559Y0417323
X0519685
X0511811
X0515748Y0409449
X0523622
X0531496
X0536377Y0418544
X0543307Y0433071
X0559055
X0562992Y0440945
X0566929Y0448819
X0559055
X0551181
X0532204Y0445150
X0530550Y0437197
X0523463Y0446567
X0515748Y0440945
X0507874
X0500000
Y0456693
X0503937Y0464567
X0511811
X0517538Y0457276
X0532007Y0460937
X0531967Y0466016
X0566929Y0464567
X0574803
X0570866Y0456693
X0484252Y0440945
X0488189Y0417323
X0507874Y0409449
X0511811Y0401575
X0503937
X0519685
X0515748Y0393701
X0503937Y0370079
X0515748Y0472441
X0531967Y0471056
Y0476134
Y0481174
Y0484559
X0524251Y0494323
X0519685Y0496063
X0515865Y0494402
X0511811Y0496063
Y0511811
X0519685
X0523622Y0519685
X0531188Y0517670
X0530019Y0529533
X0522243Y0529363
X0516652Y0533575
X0513778Y0536843
X0510275Y0536686
X0511045Y0546808
X0508722Y0549073
X0506264Y0548918
X0504172Y0557788
X0505025Y0563034
X0511036Y0562415
X0511023Y0559717
X0511849Y0556489
X0513747Y0557897
X0519369Y0559008
Y0555465
X0522519Y0557434
X0522039Y0562151
X0524527Y0564166
X0522981Y0568590
X0520808Y0570311
X0518848Y0572271
X0516888Y0574231
X0516259Y0570521
X0515748Y0566929
X0516259Y0563259
X0510908Y0565183
X0510751Y0567950
X0500000Y0566929
X0492126
X0492204Y0562158
X0497716Y0560977
X0488189Y0559055
X0480315
X0479643Y0554355
X0481343Y0551959
X0477497Y0556472
X0474627Y0558389
X0471382Y0559701
X0476378Y0566929
X0484252
X0488189Y0574803
X0489327Y0579477
X0491860Y0580603
X0484990Y0578950
X0482219Y0579003
X0479530Y0579675
X0476758
X0473986
X0471224Y0579907
X0472950Y0584199
X0475721Y0584168
X0480117Y0584559
X0480196Y0587237
X0477441Y0589730
X0476350Y0592278
X0476178Y0595044
Y0597816
Y0600588
Y0603359
Y0606131
X0472441Y0606299
X0468784Y0601499
X0468899Y0598730
Y0595958
Y0593187
Y0590415
X0468986Y0587645
X0470386Y0585253
X0472441Y0590552
X0480671Y0594135
Y0596907
Y0599679
Y0602450
Y0605222
X0480888Y0607985
X0482760Y0622882
X0477971Y0624589
X0476513Y0622232
X0472441Y0622048
X0495353Y0621252
Y0624095
X0495393Y0617079
X0495038Y0612591
X0503937Y0606299
X0504408Y0601134
X0507874Y0598425
X0515748
X0523306Y0597591
Y0601922
Y0606252
X0533057Y0606768
X0534723Y0609008
X0533148Y0611764
X0537873Y0605465
X0535628Y0602760
X0535196Y0599756
X0533778Y0593654
X0531141Y0587158
X0531967Y0584205
X0526982Y0590623
X0523306Y0592867
X0520747Y0586922
X0523700Y0581055
X0520745Y0577017
X0522705Y0575057
X0534763Y0572867
X0534709Y0570438
X0532912Y0559363
X0531180Y0561016
X0527991Y0561134
X0526298Y0558969
X0529378Y0554006
X0532419
X0533472Y0547087
X0530591
X0527914
X0532440Y0541410
X0538267Y0533418
X0547244Y0535433
X0555118
X0562676Y0534599
X0565432
X0568188
X0570944
X0573700
X0576456
X0579212
X0574803Y0527559
X0566929
X0559055
X0551181
X0555118Y0519685
X0562992
X0570866
X0578741
X0574803Y0511811
X0566929
X0559055
X0551181
X0543307
X0547244Y0503937
X0555118
X0562992
X0570866
X0578741
X0574803Y0496063
X0566929
X0559055
X0551181
X0543307
X0547244Y0488189
X0555118
X0562992
X0570866
X0578741
X0574803Y0480315
X0566929
X0559055
X0551181
X0547244Y0472441
X0562992
X0570866
X0578741
X0547244Y0519685
X0551181Y0543307
X0551756Y0547087
X0555541
X0555628Y0553511
X0558399Y0553596
X0562676Y0553497
X0562992Y0551181
X0562676Y0556252
Y0559008
Y0561764
X0565432
X0568188
X0570944
X0573700
X0576456
X0579212
X0578741Y0566929
X0570866
X0562992
X0560457Y0565923
X0559055Y0559055
X0551334Y0553868
X0548566Y0553729
X0548924Y0562945
X0547794Y0566843
X0550983
X0550786Y0571095
X0554251Y0580583
Y0588142
X0557519Y0587926
X0550235Y0588181
X0547322Y0590189
X0541416Y0588024
X0547244Y0598425
X0544999Y0604276
X0547401Y0611607
X0552046Y0615859
X0562992Y0614174
X0559055Y0606299
X0562992Y0598425
X0578741
X0574803Y0590552
X0578741Y0582678
X0570866
X0574803Y0574803
X0566929
X0562676Y0545622
Y0542867
Y0540111
Y0537355
X0559055Y0543307
X0519566Y0539717
X0515738Y0543339
X0514850Y0545784
X0517368Y0546943
X0501022Y0538811
X0492126Y0535433
X0479640Y0532320
X0477520Y0530225
X0475280Y0528653
X0473660Y0524129
X0477297Y0524101
X0480934Y0524073
X0470022Y0524157
X0472440Y0519126
X0485904Y0515308
X0492126Y0519685
X0500000
X0507874
X0503937Y0511811
X0496063
Y0496063
X0496338Y0485741
X0492401
Y0481804
X0496338
X0485708Y0488457
X0484448Y0498890
X0481534Y0500741
X0479212Y0498772
X0472441Y0496063
X0480315Y0480315
X0476378Y0472441
X0492126Y0551181
X0497745Y0576156
X0500195Y0580060
X0499520Y0582749
X0499999Y0585504
X0502472Y0584195
X0505452Y0584764
X0504766Y0590704
X0507250Y0590529
X0509342Y0588692
X0511811Y0590552
X0501839Y0590675
X0499163Y0589956
X0491111Y0590165
X0488668Y0591474
X0484536Y0591620
X0480315Y0574803
X0472441
X0515748Y0582678
Y0614174
X0511811Y0622048
X0519685
X0503937
X0543307
X0574803
X0578741Y0614174
X0574803Y0606299
X0466919Y0606682
X0468147Y0604197
X0463151Y0604220
X0464219Y0601662
X0464406Y0598897
Y0596125
Y0593354
Y0590582
X0464454Y0587811
X0465095Y0585114
X0466550Y0582756
X0468659Y0580957
X0466219Y0576725
X0464241Y0571223
X0464251Y0566489
X0468504Y0566929
X0467007Y0568851
X0467984Y0560319
X0464724Y0560262
X0461603Y0559606
X0458313Y0558190
X0455404Y0556129
X0453115Y0553676
X0451471Y0551061
X0450259Y0547961
X0449664Y0544560
X0449698Y0541716
X0450360Y0538374
X0451724Y0535138
X0453454Y0532573
X0455860Y0530163
X0458043Y0528643
X0459110Y0524241
X0462748Y0524213
X0466385Y0524185
X0468267Y0519244
X0465011Y0516437
X0464963Y0509722
X0456377Y0510189
X0456141Y0506764
X0452282
X0444251
X0439763Y0506882
X0432361Y0507434
X0429645Y0501252
X0425471Y0501174
X0427243Y0498615
X0423030Y0498536
X0423825Y0494934
X0420650
X0421692Y0505071
X0422479Y0510544
X0417834Y0508733
X0415432Y0510583
X0413660Y0501646
X0410826Y0501961
X0409723Y0505111
X0407164Y0506646
X0403649Y0515701
Y0523969
X0403227Y0529874
X0401436Y0528477
X0399751Y0526954
X0396424Y0531308
X0394789Y0529730
X0396219Y0534678
X0393778Y0539323
X0397212Y0542189
Y0548107
X0396931Y0554771
X0397045Y0557040
X0394735Y0555355
X0392204Y0554678
X0395353Y0559434
X0392597Y0566095
X0392363Y0569873
X0390527Y0568374
X0385117Y0567670
X0381967Y0568063
X0379999Y0570819
X0375865Y0570111
X0375904Y0574363
X0375944Y0578615
X0375983Y0582867
X0376023Y0587118
X0376062Y0591370
X0376101Y0595622
X0371823Y0596187
X0367571Y0596227
X0366142Y0598425
X0362794Y0596252
X0359723Y0596292
X0362205Y0606299
X0370079
X0377953
X0376101Y0601962
X0374016Y0598425
Y0614174
X0366142
X0362205Y0622048
X0370079
X0377953
X0381890Y0614174
X0389764
X0397638
X0395230Y0608457
X0392597Y0605071
X0392991Y0601725
X0393093Y0597315
X0393030Y0592709
X0398834Y0592119
X0397638Y0598425
X0401337Y0598300
Y0601410
X0404920
X0404448Y0598339
X0407597Y0604048
Y0607827
Y0613496
X0407558Y0617119
X0408339Y0623085
X0413660Y0623323
X0416771Y0623575
X0419861Y0623114
X0419841Y0617197
X0419802Y0613772
X0419841Y0607709
X0419881Y0603811
X0413660Y0603772
X0413700Y0600780
X0413660Y0608386
Y0612120
Y0615855
Y0619589
X0425519Y0621079
X0428320Y0621147
X0428019Y0618560
X0427545Y0615872
X0427867Y0613119
Y0610367
X0427471Y0607623
X0431967Y0606489
X0433463Y0609323
Y0614678
X0434526Y0617788
X0433345Y0620701
X0436275Y0620511
X0438660Y0618253
X0441205Y0621277
X0443625Y0620158
X0448801Y0621566
X0451529Y0621078
X0453991Y0619804
X0456693Y0622048
X0464567
X0468504Y0614174
X0465145Y0608811
X0461310Y0606292
X0453897Y0605859
X0450767Y0603830
Y0600662
Y0594941
X0449210Y0591475
X0447371Y0589636
X0445078Y0584874
X0445156Y0582434
X0446416Y0580229
X0447519Y0578063
X0447007Y0575741
X0446653Y0573496
X0448974Y0573200
X0449684Y0575937
X0452112Y0579941
X0452440Y0586174
X0453542Y0591331
X0456693Y0590552
X0455038Y0597788
X0460630Y0598425
Y0582678
X0441810Y0585229
X0438463Y0582000
Y0577079
X0436003Y0579540
X0433542Y0577079
Y0582000
X0430983Y0579540
X0428522Y0577079
X0426062Y0579540
X0428522Y0582000
X0422834Y0585268
X0417716Y0586174
X0412873Y0586213
X0409763Y0586292
Y0589048
X0406416Y0589008
Y0586371
X0413818Y0592119
X0411318Y0575800
X0410786Y0572906
X0414290Y0567197
X0422873Y0565623
X0422519Y0563103
X0423779Y0561213
X0426062Y0569599
X0430983
X0428522Y0572059
X0430983Y0574520
X0426062
X0420168Y0573095
X0433542Y0572059
X0436003Y0569599
X0438463Y0572059
X0436003Y0574520
X0445826Y0570977
Y0568536
X0443778Y0566489
X0438424Y0563181
X0432361Y0551134
X0426849Y0552315
X0418897Y0550189
X0418975Y0546865
X0417408Y0543593
X0421219Y0539717
X0428582Y0539796
X0439487Y0539245
X0440945Y0543307
X0440235Y0529874
X0442991
X0443907Y0525778
X0447119Y0524371
X0446298Y0518260
X0442164Y0518497
X0439369Y0520819
X0437204Y0523103
X0427637Y0521213
X0424928Y0520156
X0418818Y0523969
X0418188Y0527583
X0414251Y0527118
X0410830Y0521335
X0395353Y0521213
X0391518Y0521756
X0392218Y0519595
X0383652Y0518790
X0381180Y0518457
X0379760Y0520580
X0381799Y0521978
X0382735Y0528294
X0386115Y0526786
X0375786Y0524953
X0375747Y0520701
X0375708Y0516449
X0375668Y0512197
X0377953Y0511811
X0381669Y0512945
X0382767Y0515112
X0386137Y0513512
X0380865Y0506331
X0381141Y0504014
X0383542Y0503103
X0375589Y0503693
X0375550Y0499441
X0371272Y0499219
X0367020Y0499258
X0362243Y0499284
X0359172Y0499323
X0362205Y0496063
X0370079
X0374016Y0488189
X0366142
X0362205Y0480315
X0370079
X0377953
X0381534Y0487237
X0383936Y0488581
X0384802Y0484048
X0388660Y0482237
X0392597Y0483418
X0394534Y0481811
X0396141Y0483418
X0400471Y0482630
X0402440Y0481055
X0388030Y0475898
X0374016Y0472441
X0366142
X0375629Y0507945
X0375826Y0529205
Y0565859
X0383149Y0574363
X0385827Y0574803
X0396574Y0576607
X0396849Y0580071
X0393621Y0579914
X0392597Y0583536
X0388660Y0586174
X0401575Y0606299
Y0622048
X0393701
X0439369Y0623693
X0448227Y0624520
X0447558Y0615780
X0450767Y0616075
Y0609934
X0444864Y0611322
X0445038Y0613930
X0445117Y0607197
X0441928Y0607079
Y0604166
X0442007Y0600819
X0442125Y0598063
X0444881Y0597945
X0444841Y0595347
X0442912Y0593378
X0440668Y0591055
X0438306Y0589953
X0438345Y0599520
X0436298Y0603142
X0437855Y0605914
X0439386Y0608509
X0440811Y0611146
X0429369Y0603536
Y0600859
X0406534Y0563851
X0406267Y0547591
X0406034Y0544891
X0402772Y0543339
X0403067Y0547008
X0412243Y0498339
X0440945Y0496063
X0448819
X0452756Y0488189
X0448819Y0480315
X0456693
X0464567
Y0496063
X0456889Y0513772
X0453621Y0516489
X0450786Y0518497
X0437008Y0488189
X0433071Y0480315
X0434049Y0626685
X0437759
X0441456Y0626725
X0443650Y0627392
X0443809Y0625046
X0446421Y0627463
X0449137Y0628016
X0451663Y0629157
X0453875Y0630827
X0455824Y0632798
X0457784Y0634758
X0459743Y0636717
X0461703Y0638677
X0464567Y0637796
X0463663Y0640637
X0465623Y0642597
X0467583Y0644557
X0465197Y0648525
X0467076Y0650563
X0463237Y0646565
X0461277Y0644606
X0459318Y0642646
X0457358Y0640686
X0455398Y0638726
X0453438Y0636766
X0451478Y0634806
X0449359Y0633021
X0446776Y0632014
X0444008Y0631885
X0441236
X0438571Y0632647
X0434751Y0632674
X0431989Y0632821
X0429238Y0632489
X0426536Y0631869
X0424605Y0633378
X0422086Y0632394
X0419487Y0632748
X0416452Y0633198
X0414570Y0635233
X0412610Y0637193
X0410650Y0639152
X0408690Y0641112
X0406730Y0643072
X0404770Y0645032
X0402917Y0647092
X0400550Y0645780
X0400671Y0648717
X0398038Y0649583
X0395268Y0649692
X0392497
X0393701Y0653544
X0401575
X0409449
X0417323
X0425197
X0433071
X0440945
X0448819
X0449684Y0664205
X0446534
X0443385
X0440235
X0437086
X0437008Y0661418
X0433936Y0664205
X0430786
X0427637
X0424487
X0421338
X0421260Y0661418
X0418188Y0664205
X0415038
X0411889
X0408739
X0405590
X0405512Y0661418
X0402440Y0664205
X0399290
X0396141
X0392991
X0389842
X0389764Y0661418
X0386692Y0664205
X0383542
X0380393
X0377755
X0381890Y0661418
X0377953Y0653544
X0379488Y0651527
X0378361Y0648995
X0381627Y0645170
X0384343Y0644619
X0387110Y0644781
X0389882
X0392653
X0395425
X0398180Y0644477
X0400238Y0642620
X0402197Y0640660
X0401575Y0637796
X0404157Y0638700
X0406117Y0636740
X0408077Y0634781
X0410037Y0632821
X0411997Y0630861
X0409358Y0628472
X0408447Y0625855
X0414452Y0626335
X0421306Y0626685
X0430315
X0433071Y0637796
X0440945
X0448819
X0460630Y0629922
X0468504
X0465432Y0664205
X0462282
X0459133
X0455983
X0452834
X0452756Y0661418
X0444882
X0460630
X0467204Y0666646
Y0669796
Y0672945
Y0676095
X0429134Y0661418
X0413386
X0397638
X0387054Y0650431
X0384934Y0652217
X0370079Y0637796
X0366142Y0629922
X0374016
X0405512
X0417323Y0637796
X0425197
X0472441
X0480315
X0488189
X0496063
X0503937
X0511811
X0515748Y0629922
X0507874
X0500000
X0495353Y0629914
Y0627091
X0482550Y0627570
X0480006Y0626471
X0476378Y0629922
X0484252
X0476378Y0645670
X0472161Y0647425
X0469543Y0646517
X0482663Y0658044
X0485381Y0657499
X0488149Y0657624
X0490912Y0657401
X0493605
X0496373Y0657541
X0498655Y0659115
X0501169Y0660281
X0502780Y0662536
X0503935Y0665056
X0504349Y0667531
Y0669973
X0504371Y0672373
X0498608Y0673471
X0498725Y0676240
X0495550Y0676095
X0492401
X0489251
X0486101
X0482952
X0479802
X0476652
X0473503
X0470353
X0472441Y0669292
X0480315
X0480018Y0662401
X0482734Y0662955
X0492625Y0663619
X0496063Y0669292
X0498285Y0668082
X0498013Y0670785
X0488189Y0669292
Y0653544
X0496063
X0503937
X0511811
X0519685
X0523622Y0661418
X0515748
X0507874
X0509015Y0676095
X0516141Y0676036
X0517716Y0677906
Y0681055
Y0684205
Y0687355
Y0690504
Y0693654
Y0696804
Y0699953
Y0703103
Y0706252
Y0709402
Y0712551
Y0715701
Y0718851
X0520944Y0716882
X0524093Y0714520
X0527243Y0712158
X0530393Y0709402
X0533542Y0706646
X0536298Y0703890
X0535433Y0700788
X0539304Y0700564
X0542204Y0697197
X0544960Y0694048
X0547322Y0690898
X0549684Y0687748
X0552046Y0684599
X0554408Y0681055
X0556771Y0677118
X0550078Y0675150
X0547244Y0677166
X0539370
X0539763Y0671252
X0527559Y0669292
X0519685
X0523622Y0677166
X0531496
X0527559Y0685040
X0535433
X0543307
X0539370Y0692914
X0531496
X0523622
X0527559Y0700788
X0523622Y0708662
X0537479Y0651646
X0535196Y0648142
X0547244Y0645670
X0555118
X0555511Y0652552
X0552361Y0652000
X0552237Y0654581
X0560708Y0652315
X0566929Y0653544
X0562992Y0661418
X0559055Y0669292
X0574803Y0637796
T05
X0414692Y0645622
X0454653
X0487066
X0527027
T06
X0466652Y0543339
T07
X0387438Y0463063
X0554760
X0387438Y0632355
X0554760
T08
X0494721Y0404008
M30
