G04*
G04 #@! TF.GenerationSoftware,Altium Limited,Altium Designer,21.2.2 (38)*
G04*
G04 Layer_Color=16711935*
%FSAX25Y25*%
%MOIN*%
G70*
G04*
G04 #@! TF.SameCoordinates,38C7B28B-D0CA-4A75-A604-0C26E738F23A*
G04*
G04*
G04 #@! TF.FilePolarity,Positive*
G04*
G01*
G75*
%ADD10C,0.01000*%
D10*
X0470210Y0736391D02*
X0473102Y0736370D01*
X0467320Y0736306D02*
X0470210Y0736391D01*
X0465877Y0736210D02*
X0467320Y0736306D01*
X0465588Y0736191D02*
X0465877Y0736210D01*
X0465011Y0736148D02*
X0465588Y0736191D01*
X0464434Y0736101D02*
X0465011Y0736148D01*
X0463858Y0736050D02*
X0464434Y0736101D01*
X0463570Y0736022D02*
X0463858Y0736050D01*
X0463336Y0735999D02*
X0463570Y0736022D01*
X0462870Y0735951D02*
X0463336Y0735999D01*
X0462403Y0735900D02*
X0462870Y0735951D01*
X0461937Y0735846D02*
X0462403Y0735900D01*
X0461704Y0735817D02*
X0461937Y0735846D01*
X0461500Y0735792D02*
X0461704Y0735817D01*
X0461092Y0735740D02*
X0461500Y0735792D01*
X0460685Y0735686D02*
X0461092Y0735740D01*
X0460277Y0735630D02*
X0460685Y0735686D01*
X0460074Y0735600D02*
X0460277Y0735630D01*
X0459892Y0735574D02*
X0460074Y0735600D01*
X0459529Y0735520D02*
X0459892Y0735574D01*
X0459167Y0735464D02*
X0459529Y0735520D01*
X0458805Y0735406D02*
X0459167Y0735464D01*
X0458623Y0735377D02*
X0458805Y0735406D01*
X0457858Y0735247D02*
X0458623Y0735377D01*
X0456894Y0735071D02*
X0457858Y0735247D01*
X0455931Y0734884D02*
X0456894Y0735071D01*
X0454970Y0734684D02*
X0455931Y0734884D01*
X0453986Y0734467D02*
X0454970Y0734684D01*
X0452979Y0734231D02*
X0453986Y0734467D01*
X0451950Y0733976D02*
X0452979Y0734231D01*
X0450874Y0733694D02*
X0451950Y0733976D01*
X0449775Y0733391D02*
X0450874Y0733694D01*
X0448631Y0733057D02*
X0449775Y0733391D01*
X0447442Y0732692D02*
X0448631Y0733057D01*
X0446185Y0732285D02*
X0447442Y0732692D01*
X0444859Y0731832D02*
X0446185Y0732285D01*
X0443444Y0731323D02*
X0444859Y0731832D01*
X0443249Y0731251D02*
X0443444Y0731323D01*
X0442861Y0731105D02*
X0443249Y0731251D01*
X0442473Y0730958D02*
X0442861Y0731105D01*
X0442086Y0730808D02*
X0442473Y0730958D01*
X0441893Y0730733D02*
X0442086Y0730808D01*
X0441676Y0730648D02*
X0441893Y0730733D01*
X0441242Y0730476D02*
X0441676Y0730648D01*
X0440810Y0730301D02*
X0441242Y0730476D01*
X0440378Y0730125D02*
X0440810Y0730301D01*
X0440163Y0730035D02*
X0440378Y0730125D01*
X0439905Y0729928D02*
X0440163Y0730035D01*
X0439393Y0729712D02*
X0439905Y0729928D01*
X0438881Y0729492D02*
X0439393Y0729712D01*
X0438371Y0729269D02*
X0438881Y0729492D01*
X0438117Y0729156D02*
X0438371Y0729269D01*
X0437780Y0729006D02*
X0438117Y0729156D01*
X0437109Y0728701D02*
X0437780Y0729006D01*
X0436440Y0728391D02*
X0437109Y0728701D01*
X0435774Y0728075D02*
X0436440Y0728391D01*
X0435442Y0727914D02*
X0435774Y0728075D01*
X0435193Y0727794D02*
X0435442Y0727914D01*
X0434695Y0727549D02*
X0435193Y0727794D01*
X0434198Y0727301D02*
X0434695Y0727549D01*
X0433703Y0727051D02*
X0434198Y0727301D01*
X0433457Y0726924D02*
X0433703Y0727051D01*
X0432398Y0726371D02*
X0433457Y0726924D01*
X0431315Y0725788D02*
X0432398Y0726371D01*
X0430194Y0725166D02*
X0431315Y0725788D01*
X0429028Y0724498D02*
X0430194Y0725166D01*
X0428943Y0724449D02*
X0429028Y0724498D01*
X0428363Y0724113D02*
X0428943Y0724449D01*
X0427781Y0723780D02*
X0428363Y0724113D01*
X0426613Y0723126D02*
X0427781Y0723780D01*
X0426547Y0723089D02*
X0426613Y0723126D01*
X0426495Y0723059D02*
X0426547Y0723089D01*
X0426444Y0723028D02*
X0426495Y0723059D01*
X0425530Y0722453D02*
X0426444Y0723028D01*
X0424697Y0721917D02*
X0425530Y0722453D01*
X0423869Y0721373D02*
X0424697Y0721917D01*
X0423084Y0720846D02*
X0423869Y0721373D01*
X0422302Y0720312D02*
X0423084Y0720846D01*
X0421525Y0719771D02*
X0422302Y0720312D01*
X0420753Y0719223D02*
X0421525Y0719771D01*
X0419984Y0718669D02*
X0420753Y0719223D01*
X0419221Y0718107D02*
X0419984Y0718669D01*
X0418461Y0717538D02*
X0419221Y0718107D01*
X0417707Y0716964D02*
X0418461Y0717538D01*
X0416956Y0716383D02*
X0417707Y0716964D01*
X0416211Y0715795D02*
X0416956Y0716383D01*
X0415469Y0715201D02*
X0416211Y0715795D01*
X0414733Y0714601D02*
X0415469Y0715201D01*
X0413966Y0713967D02*
X0414733Y0714601D01*
X0413204Y0713325D02*
X0413966Y0713967D01*
X0412447Y0712677D02*
X0413204Y0713325D01*
X0411695Y0712023D02*
X0412447Y0712677D01*
X0410949Y0711362D02*
X0411695Y0712023D01*
X0410207Y0710696D02*
X0410949Y0711362D01*
X0409471Y0710023D02*
X0410207Y0710696D01*
X0408706Y0709314D02*
X0409471Y0710023D01*
X0407947Y0708598D02*
X0408706Y0709314D01*
X0407194Y0707876D02*
X0407947Y0708598D01*
X0406446Y0707149D02*
X0407194Y0707876D01*
X0405672Y0706384D02*
X0406446Y0707149D01*
X0404904Y0705612D02*
X0405672Y0706384D01*
X0404143Y0704834D02*
X0404904Y0705612D01*
X0403356Y0704017D02*
X0404143Y0704834D01*
X0402576Y0703195D02*
X0403356Y0704017D01*
X0401772Y0702332D02*
X0402576Y0703195D01*
X0400976Y0701464D02*
X0401772Y0702332D01*
X0400156Y0700556D02*
X0400976Y0701464D01*
X0399345Y0699641D02*
X0400156Y0700556D01*
X0398512Y0698685D02*
X0399345Y0699641D01*
X0397659Y0697688D02*
X0398512Y0698685D01*
X0396786Y0696651D02*
X0397659Y0697688D01*
X0395894Y0695571D02*
X0396786Y0696651D01*
X0394985Y0694449D02*
X0395894Y0695571D01*
X0394060Y0693284D02*
X0394985Y0694449D01*
X0393395Y0692433D02*
X0394060Y0693284D01*
X0392586Y0691381D02*
X0393395Y0692433D01*
X0391805Y0690347D02*
X0392586Y0691381D01*
X0391031Y0689306D02*
X0391805Y0690347D01*
X0390266Y0688259D02*
X0391031Y0689306D01*
X0389509Y0687205D02*
X0390266Y0688259D01*
X0388760Y0686146D02*
X0389509Y0687205D01*
X0388019Y0685080D02*
X0388760Y0686146D01*
X0387286Y0684009D02*
X0388019Y0685080D01*
X0386544Y0682906D02*
X0387286Y0684009D01*
X0385810Y0681798D02*
X0386544Y0682906D01*
X0385085Y0680684D02*
X0385810Y0681798D01*
X0384368Y0679564D02*
X0385085Y0680684D01*
X0383644Y0678413D02*
X0384368Y0679564D01*
X0382928Y0677257D02*
X0383644Y0678413D01*
X0382220Y0676095D02*
X0382928Y0677257D01*
X0381506Y0674901D02*
X0382220Y0676095D01*
X0380801Y0673702D02*
X0381506Y0674901D01*
X0380089Y0672471D02*
X0380801Y0673702D01*
X0379387Y0671236D02*
X0380089Y0672471D01*
X0378678Y0669968D02*
X0379387Y0671236D01*
X0377980Y0668695D02*
X0378678Y0669968D01*
X0377277Y0667391D02*
X0377980Y0668695D01*
X0376771Y0666436D02*
X0377277Y0667391D01*
X0375881Y0664728D02*
X0376771Y0666436D01*
X0375025Y0663046D02*
X0375881Y0664728D01*
X0374166Y0661319D02*
X0375025Y0663046D01*
X0373323Y0659586D02*
X0374166Y0661319D01*
X0372497Y0657843D02*
X0373323Y0659586D01*
X0371669Y0656058D02*
X0372497Y0657843D01*
X0370857Y0654264D02*
X0371669Y0656058D01*
X0370047Y0652427D02*
X0370857Y0654264D01*
X0369237Y0650546D02*
X0370047Y0652427D01*
X0368445Y0648657D02*
X0369237Y0650546D01*
X0367655Y0646724D02*
X0368445Y0648657D01*
X0366869Y0644748D02*
X0367655Y0646724D01*
X0366088Y0642728D02*
X0366869Y0644748D01*
X0365312Y0640664D02*
X0366088Y0642728D01*
X0364528Y0638519D02*
X0365312Y0640664D01*
X0363754Y0636330D02*
X0364528Y0638519D01*
X0362975Y0634058D02*
X0363754Y0636330D01*
X0362195Y0631706D02*
X0362975Y0634058D01*
X0361689Y0630135D02*
X0362195Y0631706D01*
X0361671Y0630076D02*
X0361689Y0630135D01*
X0361634Y0629947D02*
X0361671Y0630076D01*
X0361415Y0629154D02*
X0361634Y0629947D01*
X0361191Y0628363D02*
X0361415Y0629154D01*
X0360725Y0626783D02*
X0361191Y0628363D01*
X0359980Y0624272D02*
X0360725Y0626783D01*
X0359261Y0621751D02*
X0359980Y0624272D01*
X0358557Y0619181D02*
X0359261Y0621751D01*
X0357870Y0616562D02*
X0358557Y0619181D01*
X0357202Y0613902D02*
X0357870Y0616562D01*
X0357191Y0613852D02*
X0357202Y0613902D01*
X0357191Y0613852D02*
X0357191Y0481544D01*
X0358035Y0478189D01*
X0358904Y0474916D01*
X0359795Y0471730D01*
X0360726Y0468632D01*
X0360962Y0467844D01*
X0361191Y0467054D01*
X0361634Y0465471D01*
X0361650Y0465412D01*
X0361689Y0465284D01*
X0362522Y0462718D01*
X0363337Y0460294D01*
X0364156Y0457945D01*
X0364975Y0455669D01*
X0365793Y0453468D01*
X0366609Y0451339D01*
X0367432Y0449251D01*
X0368263Y0447205D01*
X0369100Y0445199D01*
X0369943Y0443233D01*
X0370790Y0441309D01*
X0371641Y0439424D01*
X0372495Y0437580D01*
X0373367Y0435745D01*
X0374240Y0433950D01*
X0374801Y0432821D01*
X0375500Y0431435D01*
X0376183Y0430107D01*
X0376876Y0428783D01*
X0377565Y0427491D01*
X0378249Y0426231D01*
X0378943Y0424974D01*
X0379632Y0423749D01*
X0380329Y0422530D01*
X0381036Y0421315D01*
X0381736Y0420132D01*
X0382445Y0418953D01*
X0383163Y0417780D01*
X0383874Y0416638D01*
X0384593Y0415502D01*
X0385321Y0414370D01*
X0386058Y0413245D01*
X0386803Y0412126D01*
X0387539Y0411037D01*
X0388284Y0409955D01*
X0389038Y0408878D01*
X0389799Y0407808D01*
X0390200Y0407251D01*
X0391240Y0405830D01*
X0392205Y0404539D01*
X0393123Y0403337D01*
X0394023Y0402181D01*
X0394903Y0401073D01*
X0395761Y0400011D01*
X0396597Y0398994D01*
X0397410Y0398023D01*
X0398231Y0397059D01*
X0399028Y0396139D01*
X0399832Y0395226D01*
X0400610Y0394356D01*
X0401395Y0393494D01*
X0402154Y0392674D01*
X0402917Y0391860D01*
X0403688Y0391053D01*
X0404430Y0390288D01*
X0405178Y0389528D01*
X0405932Y0388775D01*
X0406691Y0388029D01*
X0407456Y0387288D01*
X0408190Y0386588D01*
X0408929Y0385895D01*
X0409674Y0385207D01*
X0410423Y0384525D01*
X0411178Y0383850D01*
X0411938Y0383181D01*
X0412704Y0382519D01*
X0413436Y0381896D01*
X0414172Y0381279D01*
X0414914Y0380667D01*
X0415659Y0380063D01*
X0416410Y0379464D01*
X0417164Y0378872D01*
X0417924Y0378287D01*
X0418688Y0377708D01*
X0419457Y0377136D01*
X0420229Y0376571D01*
X0421007Y0376012D01*
X0421789Y0375462D01*
X0422576Y0374918D01*
X0423368Y0374380D01*
X0424205Y0373823D01*
X0425048Y0373274D01*
X0425895Y0372734D01*
X0426406Y0372414D01*
X0426470Y0372374D01*
X0426522Y0372344D01*
X0426574Y0372314D01*
X0427198Y0371967D01*
X0427782Y0371638D01*
X0428944Y0370969D01*
X0429349Y0370733D01*
X0430164Y0370268D01*
X0430983Y0369811D01*
X0431807Y0369363D01*
X0432222Y0369143D01*
X0432494Y0368998D01*
X0433041Y0368711D01*
X0433590Y0368429D01*
X0434141Y0368150D01*
X0434417Y0368012D01*
X0434643Y0367899D01*
X0435094Y0367677D01*
X0435547Y0367458D01*
X0436001Y0367240D01*
X0436229Y0367133D01*
X0436427Y0367039D01*
X0436825Y0366854D01*
X0437223Y0366670D01*
X0437622Y0366489D01*
X0437822Y0366399D01*
X0439272Y0365763D01*
X0440600Y0365207D01*
X0441856Y0364703D01*
X0443065Y0364239D01*
X0443739Y0363991D01*
Y0378613D01*
Y0379052D01*
X0443910Y0379911D01*
X0444245Y0380721D01*
X0444732Y0381449D01*
X0445352Y0382069D01*
X0446081Y0382556D01*
X0446890Y0382891D01*
X0447750Y0383062D01*
X0448680D01*
X0449646Y0382870D01*
X0450556Y0382493D01*
X0451375Y0381946D01*
X0452072Y0381249D01*
X0452619Y0380431D01*
X0452996Y0379521D01*
X0453188Y0378555D01*
Y0378062D02*
Y0378555D01*
Y0361136D02*
Y0378062D01*
Y0361136D02*
X0456904Y0361135D01*
X0488986D01*
X0489330Y0361215D01*
Y0378613D01*
Y0379052D01*
X0489501Y0379911D01*
X0489836Y0380721D01*
X0490323Y0381449D01*
X0490942Y0382069D01*
X0491671Y0382556D01*
X0492481Y0382891D01*
X0493340Y0383062D01*
X0494271D01*
X0495237Y0382870D01*
X0496147Y0382493D01*
X0496966Y0381946D01*
X0497662Y0381249D01*
X0498209Y0380431D01*
X0498586Y0379521D01*
X0498778Y0378555D01*
Y0378062D02*
Y0378555D01*
Y0364102D02*
Y0378062D01*
Y0364102D02*
X0499162Y0364245D01*
X0499568Y0364399D01*
X0499770Y0364476D01*
X0500000Y0364564D01*
X0500459Y0364743D01*
X0500917Y0364925D01*
X0501373Y0365109D01*
X0501601Y0365202D01*
X0501880Y0365316D01*
X0502436Y0365548D01*
X0502990Y0365783D01*
X0503543Y0366022D01*
X0503819Y0366144D01*
X0504218Y0366320D01*
X0505013Y0366680D01*
X0505804Y0367047D01*
X0506592Y0367422D01*
X0506984Y0367613D01*
X0507205Y0367720D01*
X0507644Y0367937D01*
X0508082Y0368157D01*
X0508519Y0368378D01*
X0508737Y0368491D01*
X0509514Y0368895D01*
X0510292Y0369309D01*
X0511076Y0369735D01*
X0511868Y0370176D01*
X0512671Y0370631D01*
X0513255Y0370970D01*
X0513835Y0371305D01*
X0514417Y0371638D01*
X0515585Y0372292D01*
X0515651Y0372329D01*
X0515703Y0372360D01*
X0515754Y0372390D01*
X0516570Y0372903D01*
X0517320Y0373384D01*
X0518066Y0373872D01*
X0518808Y0374366D01*
X0519545Y0374866D01*
X0520279Y0375373D01*
X0521008Y0375885D01*
X0521735Y0376404D01*
X0522456Y0376928D01*
X0523197Y0377477D01*
X0523935Y0378031D01*
X0524667Y0378592D01*
X0525396Y0379159D01*
X0526120Y0379731D01*
X0526840Y0380310D01*
X0527578Y0380912D01*
X0528311Y0381521D01*
X0529040Y0382136D01*
X0529786Y0382775D01*
X0530528Y0383421D01*
X0531264Y0384073D01*
X0532016Y0384750D01*
X0532764Y0385433D01*
X0533528Y0386142D01*
X0534285Y0386857D01*
X0535058Y0387598D01*
X0535847Y0388366D01*
X0536628Y0389140D01*
X0537424Y0389942D01*
X0538232Y0390770D01*
X0538706Y0391262D01*
X0539608Y0392212D01*
X0540465Y0393131D01*
X0541315Y0394059D01*
X0542158Y0394995D01*
X0542992Y0395939D01*
X0543818Y0396889D01*
X0544636Y0397847D01*
X0545446Y0398813D01*
X0546249Y0399785D01*
X0547044Y0400765D01*
X0547831Y0401750D01*
X0548610Y0402743D01*
X0549382Y0403743D01*
X0550145Y0404748D01*
X0550902Y0405761D01*
X0551650Y0406779D01*
X0552391Y0407803D01*
X0553123Y0408833D01*
X0553849Y0409869D01*
X0554596Y0410953D01*
X0555335Y0412044D01*
X0556066Y0413140D01*
X0556788Y0414242D01*
X0557503Y0415349D01*
X0558237Y0416507D01*
X0558962Y0417670D01*
X0559678Y0418838D01*
X0560413Y0420056D01*
X0561138Y0421281D01*
X0561854Y0422510D01*
X0562586Y0423790D01*
X0563308Y0425075D01*
X0564045Y0426411D01*
X0564771Y0427752D01*
X0565511Y0429145D01*
X0566263Y0430589D01*
X0567027Y0432085D01*
X0567801Y0433633D01*
X0568240Y0434526D01*
X0569133Y0436376D01*
X0570008Y0438234D01*
X0570864Y0440101D01*
X0571718Y0442007D01*
X0572565Y0443951D01*
X0573408Y0445935D01*
X0574243Y0447957D01*
X0575071Y0450019D01*
X0575891Y0452119D01*
X0576713Y0454290D01*
X0577525Y0456499D01*
X0578336Y0458779D01*
X0579145Y0461129D01*
X0579960Y0463582D01*
X0580509Y0465284D01*
X0580527Y0465342D01*
X0580548Y0465413D01*
X0580564Y0465472D01*
X0580783Y0466264D01*
X0581007Y0467055D01*
X0581473Y0468636D01*
X0582215Y0471136D01*
X0582923Y0473617D01*
X0583617Y0476147D01*
X0584294Y0478724D01*
X0584964Y0481391D01*
X0585011Y0481586D01*
Y0613844D01*
X0584170Y0617200D02*
X0585011Y0613844D01*
X0583304Y0620474D02*
X0584170Y0617200D01*
X0582416Y0623660D02*
X0583304Y0620474D01*
X0581472Y0626786D02*
X0582416Y0623660D01*
X0581236Y0627574D02*
X0581472Y0626786D01*
X0581006Y0628364D02*
X0581236Y0627574D01*
X0580564Y0629948D02*
X0581006Y0628364D01*
X0580548Y0630006D02*
X0580564Y0629948D01*
X0580509Y0630134D02*
X0580548Y0630006D01*
X0579676Y0632700D02*
X0580509Y0630134D01*
X0578861Y0635124D02*
X0579676Y0632700D01*
X0578042Y0637473D02*
X0578861Y0635124D01*
X0577223Y0639749D02*
X0578042Y0637473D01*
X0576404Y0641951D02*
X0577223Y0639749D01*
X0575589Y0644079D02*
X0576404Y0641951D01*
X0574765Y0646167D02*
X0575589Y0644079D01*
X0573935Y0648213D02*
X0574765Y0646167D01*
X0573098Y0650219D02*
X0573935Y0648213D01*
X0572255Y0652185D02*
X0573098Y0650219D01*
X0571408Y0654110D02*
X0572255Y0652185D01*
X0570557Y0655994D02*
X0571408Y0654110D01*
X0569702Y0657838D02*
X0570557Y0655994D01*
X0568831Y0659673D02*
X0569702Y0657838D01*
X0567958Y0661468D02*
X0568831Y0659673D01*
X0567397Y0662598D02*
X0567958Y0661468D01*
X0566698Y0663983D02*
X0567397Y0662598D01*
X0566015Y0665311D02*
X0566698Y0663983D01*
X0565322Y0666635D02*
X0566015Y0665311D01*
X0564633Y0667927D02*
X0565322Y0666635D01*
X0563948Y0669187D02*
X0564633Y0667927D01*
X0563254Y0670444D02*
X0563948Y0669187D01*
X0562566Y0671669D02*
X0563254Y0670444D01*
X0561869Y0672888D02*
X0562566Y0671669D01*
X0561162Y0674103D02*
X0561869Y0672888D01*
X0560462Y0675286D02*
X0561162Y0674103D01*
X0559753Y0676465D02*
X0560462Y0675286D01*
X0559035Y0677638D02*
X0559753Y0676465D01*
X0558324Y0678780D02*
X0559035Y0677638D01*
X0557604Y0679917D02*
X0558324Y0678780D01*
X0556876Y0681048D02*
X0557604Y0679917D01*
X0556140Y0682173D02*
X0556876Y0681048D01*
X0555395Y0683292D02*
X0556140Y0682173D01*
X0554658Y0684381D02*
X0555395Y0683292D01*
X0553913Y0685463D02*
X0554658Y0684381D01*
X0553160Y0686540D02*
X0553913Y0685463D01*
X0552399Y0687610D02*
X0553160Y0686540D01*
X0551998Y0688168D02*
X0552399Y0687610D01*
X0550958Y0689588D02*
X0551998Y0688168D01*
X0549992Y0690879D02*
X0550958Y0689588D01*
X0549074Y0692081D02*
X0549992Y0690879D01*
X0548175Y0693237D02*
X0549074Y0692081D01*
X0547295Y0694345D02*
X0548175Y0693237D01*
X0546437Y0695408D02*
X0547295Y0694345D01*
X0545601Y0696424D02*
X0546437Y0695408D01*
X0544788Y0697395D02*
X0545601Y0696424D01*
X0543967Y0698359D02*
X0544788Y0697395D01*
X0543170Y0699279D02*
X0543967Y0698359D01*
X0542366Y0700192D02*
X0543170Y0699279D01*
X0541587Y0701062D02*
X0542366Y0700192D01*
X0540802Y0701925D02*
X0541587Y0701062D01*
X0540044Y0702744D02*
X0540802Y0701925D01*
X0539280Y0703558D02*
X0540044Y0702744D01*
X0538509Y0704365D02*
X0539280Y0703558D01*
X0537768Y0705130D02*
X0538509Y0704365D01*
X0537020Y0705890D02*
X0537768Y0705130D01*
X0536266Y0706643D02*
X0537020Y0705890D01*
X0535507Y0707390D02*
X0536266Y0706643D01*
X0534742Y0708131D02*
X0535507Y0707390D01*
X0534008Y0708830D02*
X0534742Y0708131D01*
X0533269Y0709523D02*
X0534008Y0708830D01*
X0532524Y0710211D02*
X0533269Y0709523D01*
X0531775Y0710893D02*
X0532524Y0710211D01*
X0531019Y0711568D02*
X0531775Y0710893D01*
X0530259Y0712237D02*
X0531019Y0711568D01*
X0529494Y0712899D02*
X0530259Y0712237D01*
X0528762Y0713523D02*
X0529494Y0712899D01*
X0528026Y0714140D02*
X0528762Y0713523D01*
X0527284Y0714751D02*
X0528026Y0714140D01*
X0526539Y0715355D02*
X0527284Y0714751D01*
X0525788Y0715954D02*
X0526539Y0715355D01*
X0525034Y0716546D02*
X0525788Y0715954D01*
X0524274Y0717131D02*
X0525034Y0716546D01*
X0523510Y0717710D02*
X0524274Y0717131D01*
X0522741Y0718282D02*
X0523510Y0717710D01*
X0521968Y0718847D02*
X0522741Y0718282D01*
X0521190Y0719406D02*
X0521968Y0718847D01*
X0520408Y0719956D02*
X0521190Y0719406D01*
X0519622Y0720501D02*
X0520408Y0719956D01*
X0518830Y0721038D02*
X0519622Y0720501D01*
X0517993Y0721595D02*
X0518830Y0721038D01*
X0517150Y0722144D02*
X0517993Y0721595D01*
X0516303Y0722684D02*
X0517150Y0722144D01*
X0515792Y0723004D02*
X0516303Y0722684D01*
X0515728Y0723043D02*
X0515792Y0723004D01*
X0515637Y0723096D02*
X0515728Y0723043D01*
X0515585Y0723126D02*
X0515637Y0723096D01*
X0515000Y0723452D02*
X0515585Y0723126D01*
X0514416Y0723781D02*
X0515000Y0723452D01*
X0513255Y0724449D02*
X0514416Y0723781D01*
X0512843Y0724689D02*
X0513255Y0724449D01*
X0512016Y0725161D02*
X0512843Y0724689D01*
X0511183Y0725624D02*
X0512016Y0725161D01*
X0510347Y0726079D02*
X0511183Y0725624D01*
X0509926Y0726302D02*
X0510347Y0726079D01*
X0509650Y0726449D02*
X0509926Y0726302D01*
X0509096Y0726738D02*
X0509650Y0726449D01*
X0508540Y0727024D02*
X0509096Y0726738D01*
X0507982Y0727306D02*
X0508540Y0727024D01*
X0507702Y0727445D02*
X0507982Y0727306D01*
X0507477Y0727557D02*
X0507702Y0727445D01*
X0507026Y0727779D02*
X0507477Y0727557D01*
X0506573Y0727998D02*
X0507026Y0727779D01*
X0506119Y0728214D02*
X0506573Y0727998D01*
X0505892Y0728322D02*
X0506119Y0728214D01*
X0505693Y0728415D02*
X0505892Y0728322D01*
X0505295Y0728600D02*
X0505693Y0728415D01*
X0504897Y0728783D02*
X0505295Y0728600D01*
X0504497Y0728964D02*
X0504897Y0728783D01*
X0504297Y0729054D02*
X0504497Y0728964D01*
X0502846Y0729689D02*
X0504297Y0729054D01*
X0501492Y0730255D02*
X0502846Y0729689D01*
X0500235Y0730757D02*
X0501492Y0730255D01*
X0499025Y0731219D02*
X0500235Y0730757D01*
X0497890Y0731635D02*
X0499025Y0731219D01*
X0496777Y0732025D02*
X0497890Y0731635D01*
X0495714Y0732382D02*
X0496777Y0732025D01*
X0494674Y0732717D02*
X0495714Y0732382D01*
X0493658Y0733030D02*
X0494674Y0732717D01*
X0492667Y0733322D02*
X0493658Y0733030D01*
X0491700Y0733593D02*
X0492667Y0733322D01*
X0490757Y0733846D02*
X0491700Y0733593D01*
X0489813Y0734087D02*
X0490757Y0733846D01*
X0488894Y0734310D02*
X0489813Y0734087D01*
X0487973Y0734522D02*
X0488894Y0734310D01*
X0487078Y0734717D02*
X0487973Y0734522D01*
X0486602Y0734816D02*
X0487078Y0734717D01*
X0486401Y0734857D02*
X0486602Y0734816D01*
X0485999Y0734937D02*
X0486401Y0734857D01*
X0485596Y0735015D02*
X0485999Y0734937D01*
X0485193Y0735091D02*
X0485596Y0735015D01*
X0484992Y0735128D02*
X0485193Y0735091D01*
X0484761Y0735170D02*
X0484992Y0735128D01*
X0484300Y0735251D02*
X0484761Y0735170D01*
X0483839Y0735330D02*
X0484300Y0735251D01*
X0483376Y0735405D02*
X0483839Y0735330D01*
X0483145Y0735442D02*
X0483376Y0735405D01*
X0482860Y0735487D02*
X0483145Y0735442D01*
X0482288Y0735572D02*
X0482860Y0735487D01*
X0481716Y0735653D02*
X0482288Y0735572D01*
X0481143Y0735730D02*
X0481716Y0735653D01*
X0480857Y0735766D02*
X0481143Y0735730D01*
X0480430Y0735820D02*
X0480857Y0735766D01*
X0479574Y0735919D02*
X0480430Y0735820D01*
X0478718Y0736008D02*
X0479574Y0735919D01*
X0477861Y0736088D02*
X0478718Y0736008D01*
X0477432Y0736123D02*
X0477861Y0736088D01*
X0475991Y0736241D02*
X0477432Y0736123D01*
X0473102Y0736370D02*
X0475991Y0736241D01*
M02*
