G04*
G04 #@! TF.GenerationSoftware,Altium Limited,Altium Designer,21.2.2 (38)*
G04*
G04 Layer_Color=65535*
%FSAX25Y25*%
%MOIN*%
G70*
G04*
G04 #@! TF.SameCoordinates,A33CE32A-6CF7-472C-A66C-8299AAF89105*
G04*
G04*
G04 #@! TF.FilePolarity,Positive*
G04*
G01*
G75*
%ADD10C,0.01000*%
%ADD11C,0.03937*%
%ADD12C,0.01181*%
%ADD13C,0.00984*%
%ADD14C,0.00591*%
%ADD15C,0.01968*%
%ADD16C,0.00787*%
%ADD17C,0.00394*%
%ADD18C,0.00197*%
%ADD19C,0.00598*%
D10*
X0498192Y0580577D02*
G03*
X0498192Y0580577I-0000325J0000000D01*
G01*
X0431196Y0630893D02*
G03*
X0431196Y0630893I-0000325J0000000D01*
G01*
X0540330Y0669914D02*
G03*
X0540330Y0669914I-0000449J0000000D01*
G01*
X0538543Y0613488D02*
G03*
X0538543Y0613488I-0000473J0000000D01*
G01*
X0543719Y0588123D02*
G03*
X0543719Y0588123I-0000197J0000000D01*
G01*
X0525024Y0561650D02*
G03*
X0525024Y0561650I-0000424J0000000D01*
G01*
X0530472Y0528851D02*
G03*
X0530472Y0528851I-0000473J0000000D01*
G01*
X0465762Y0515800D02*
G03*
X0465762Y0515800I-0000487J0000000D01*
G01*
X0421101Y0519126D02*
G03*
X0421101Y0519126I-0000197J0000000D01*
G01*
X0489808Y0490071D02*
G03*
X0489808Y0490071I-0000557J0000000D01*
G01*
D11*
X0423294Y0695622D02*
G03*
X0423294Y0695622I-0000264J0000000D01*
G01*
D12*
X0582184Y0561374D02*
G03*
X0582184Y0561374I-0000449J0000000D01*
G01*
X0398700Y0575465D02*
G03*
X0398700Y0575465I-0000394J0000000D01*
G01*
X0441965Y0396843D02*
Y0399874D01*
Y0408181D02*
Y0411410D01*
D13*
X0393326Y0600780D02*
G03*
X0393326Y0600780I-0000492J0000000D01*
G01*
X0537381Y0673118D02*
G03*
X0537381Y0673118I-0000492J0000000D01*
G01*
X0525884Y0657693D02*
G03*
X0525884Y0657693I-0000492J0000000D01*
G01*
X0548871Y0646235D02*
G03*
X0548871Y0646235I-0000492J0000000D01*
G01*
X0515509Y0552181D02*
G03*
X0515509Y0552181I-0000352J0000000D01*
G01*
X0504325Y0538930D02*
G03*
X0504325Y0538930I-0000352J0000000D01*
G01*
X0523956Y0439835D02*
G03*
X0523956Y0439835I-0000492J0000000D01*
G01*
X0389354Y0496757D02*
G03*
X0389354Y0496757I-0000492J0000000D01*
G01*
X0376121Y0491725D02*
G03*
X0376121Y0491725I-0000492J0000000D01*
G01*
X0465845Y0442377D02*
G03*
X0465845Y0442377I-0000492J0000000D01*
G01*
X0424446Y0453260D02*
G03*
X0424446Y0453260I-0000549J0000000D01*
G01*
X0478507Y0488457D02*
G03*
X0478507Y0488457I-0000492J0000000D01*
G01*
X0491179Y0415898D02*
G03*
X0491179Y0415898I-0000493J0000000D01*
G01*
X0422893Y0400189D02*
G03*
X0422893Y0400189I-0000492J0000000D01*
G01*
X0433082Y0688850D02*
Y0684127D01*
X0436231D01*
X0444889Y0688850D02*
X0443315D01*
X0442528Y0688063D01*
Y0684914D01*
X0443315Y0684127D01*
X0444889D01*
X0445677Y0684914D01*
Y0688063D01*
X0444889Y0688850D01*
X0451974Y0684127D02*
Y0688850D01*
X0454335D01*
X0455122Y0688063D01*
Y0686489D01*
X0454335Y0685701D01*
X0451974D01*
X0453548D02*
X0455122Y0684127D01*
X0461419D02*
Y0687276D01*
X0462994Y0688850D01*
X0464568Y0687276D01*
Y0684127D01*
Y0686489D01*
X0461419D01*
X0480311Y0688850D02*
Y0684127D01*
X0481885Y0685701D01*
X0483460Y0684127D01*
Y0688850D01*
X0489757D02*
X0491331D01*
X0490544D01*
Y0684127D01*
X0489757D01*
X0491331D01*
X0501564Y0688850D02*
X0498415D01*
Y0686489D01*
X0499990D01*
X0498415D01*
Y0684127D01*
X0507861Y0688850D02*
X0509435D01*
X0508648D01*
Y0684127D01*
X0507861D01*
X0509435D01*
D14*
X0421928Y0586528D02*
G03*
X0421928Y0586528I-0000394J0000000D01*
G01*
X0452783Y0614933D02*
X0454676Y0613040D01*
X0452783Y0614933D02*
X0453312Y0615462D01*
X0454676Y0613040D02*
X0457739Y0616103D01*
X0455317Y0617467D02*
X0455845Y0617996D01*
X0457739Y0616103D01*
X0453117Y0610702D02*
X0455511Y0608308D01*
X0459743Y0607973D02*
Y0608948D01*
X0460077Y0617662D02*
X0462471Y0615267D01*
X0461831Y0611036D02*
X0462805D01*
X0476259Y0617119D02*
Y0619796D01*
X0477007D01*
X0476259Y0617119D02*
X0480589D01*
X0479842Y0619796D02*
X0480589D01*
Y0617119D02*
Y0619796D01*
X0473503Y0613181D02*
Y0616567D01*
X0476259Y0609953D02*
X0476948Y0610642D01*
X0483345Y0613181D02*
Y0616567D01*
X0479901Y0610642D02*
X0480589Y0609953D01*
X0499555Y0574461D02*
X0501448Y0572568D01*
X0499555Y0574461D02*
X0500084Y0574990D01*
X0501448Y0572568D02*
X0504510Y0575630D01*
X0502088Y0576994D02*
X0502617Y0577523D01*
X0504510Y0575630D01*
X0499889Y0570229D02*
X0502283Y0567835D01*
X0506515Y0567501D02*
Y0568475D01*
X0506849Y0577189D02*
X0509243Y0574795D01*
X0508603Y0570563D02*
X0509577Y0570564D01*
X0516424Y0581079D02*
X0518317Y0579186D01*
X0517788Y0578656D02*
X0518317Y0579186D01*
X0513362Y0578016D02*
X0516424Y0581079D01*
X0515255Y0576123D02*
X0515784Y0576652D01*
X0513362Y0578016D02*
X0515255Y0576123D01*
X0515589Y0585811D02*
X0517983Y0583417D01*
X0511357Y0585171D02*
Y0586145D01*
X0508629Y0578852D02*
X0511023Y0576457D01*
X0508295Y0583083D02*
X0509269D01*
X0481529Y0545504D02*
X0484206D01*
Y0544756D02*
Y0545504D01*
X0481529Y0541174D02*
Y0545504D01*
X0484206Y0541174D02*
Y0541922D01*
X0481529Y0541174D02*
X0484206D01*
X0477592Y0548260D02*
X0480978D01*
X0474363Y0545504D02*
X0475052Y0544815D01*
X0477592Y0538418D02*
X0480978D01*
X0474363Y0541174D02*
X0475052Y0541863D01*
X0535904Y0548654D02*
X0538582D01*
X0535904D02*
Y0549402D01*
X0538582Y0548654D02*
Y0552985D01*
X0535904Y0552237D02*
Y0552985D01*
X0538582D01*
X0539133Y0545898D02*
X0542519D01*
X0545058Y0549343D02*
X0545747Y0548654D01*
X0539133Y0555740D02*
X0542519D01*
X0545058Y0552296D02*
X0545747Y0552985D01*
X0382794Y0593103D02*
Y0601370D01*
X0391456Y0593300D02*
X0391456Y0601370D01*
X0477105Y0659344D02*
Y0660319D01*
X0470480Y0657590D02*
X0472874Y0659984D01*
X0479193Y0657256D02*
X0480167D01*
X0477439Y0650631D02*
X0479833Y0653025D01*
X0470145Y0653359D02*
X0472039Y0655252D01*
X0470145Y0653359D02*
X0470674Y0652830D01*
X0472039Y0655252D02*
X0475101Y0652189D01*
X0472679Y0650826D02*
X0473208Y0650296D01*
X0475101Y0652189D01*
X0540702Y0656274D02*
X0548970D01*
X0540899Y0647612D02*
X0548970Y0647612D01*
X0524842Y0441017D02*
Y0452040D01*
X0536259Y0441017D02*
Y0452040D01*
X0524842D02*
X0525038Y0452040D01*
X0536062Y0452040D02*
X0536259Y0452040D01*
X0536062Y0441016D02*
X0536259Y0441016D01*
X0524842Y0441016D02*
X0525038Y0441016D01*
X0528582Y0441016D02*
X0528779Y0441016D01*
X0532322Y0441016D02*
X0532519Y0441016D01*
X0528582Y0452040D02*
X0528779Y0452040D01*
X0532322Y0452040D02*
X0532519Y0452040D01*
X0385668Y0491134D02*
Y0499402D01*
X0377007Y0491134D02*
X0377007Y0499205D01*
X0432440Y0399599D02*
Y0407867D01*
X0423778Y0399599D02*
X0423779Y0407670D01*
D15*
X0517196Y0590189D02*
G03*
X0517196Y0590189I-0000623J0000000D01*
G01*
D16*
X0503866Y0553478D02*
G03*
X0503866Y0553478I-0000431J0000000D01*
G01*
X0439249Y0494123D02*
G03*
X0439249Y0494123I-0000336J0000000D01*
G01*
X0392345Y0430338D02*
G03*
X0392345Y0430338I-0000336J0000000D01*
G01*
X0424684Y0466121D02*
G03*
X0424684Y0463234I0000000J-0001444D01*
G01*
X0558451Y0445936D02*
G03*
X0558451Y0445936I-0000336J0000000D01*
G01*
X0490708Y0589087D02*
X0496613D01*
X0490708Y0581607D02*
X0496613D01*
X0472854Y0536646D02*
X0473641D01*
X0472854D02*
Y0550032D01*
X0473641D01*
X0485058Y0536646D02*
Y0540583D01*
X0483877Y0536646D02*
X0485058D01*
X0483877Y0550032D02*
X0485058Y0550032D01*
Y0546095D02*
Y0550032D01*
X0546456Y0557512D02*
X0547243D01*
Y0544126D02*
Y0557512D01*
X0546456Y0544126D02*
X0547243D01*
X0535038Y0553575D02*
Y0557512D01*
X0536219D01*
X0535038Y0544126D02*
X0536219Y0544126D01*
X0535038Y0544126D02*
Y0548063D01*
X0564137Y0535902D02*
Y0559524D01*
X0583861D01*
Y0535902D02*
Y0559524D01*
X0564137Y0535902D02*
X0583861D01*
X0430631Y0521219D02*
Y0526719D01*
X0419131D02*
X0430631D01*
X0419131Y0521219D02*
Y0526719D01*
Y0521219D02*
X0430631D01*
X0407005D02*
Y0526719D01*
Y0521219D02*
X0418505D01*
Y0526719D01*
X0407005D02*
X0418505D01*
X0399881Y0565623D02*
X0409330D01*
X0399881D02*
Y0577433D01*
X0409330D01*
Y0565623D02*
Y0577433D01*
X0407688Y0561894D02*
X0413256Y0567461D01*
X0421050Y0559666D01*
X0415483Y0554099D02*
X0421050Y0559666D01*
X0407688Y0561894D02*
X0415483Y0554099D01*
X0429841Y0623733D02*
Y0629638D01*
X0422361Y0623733D02*
Y0629638D01*
X0388897Y0645997D02*
X0389684D01*
X0384098Y0651346D02*
X0385700Y0654943D01*
X0384621Y0655423D02*
X0385700Y0654943D01*
X0379176Y0643194D02*
X0380255Y0642714D01*
X0381856Y0646311D01*
X0374550Y0659907D02*
X0375269Y0659586D01*
X0369106Y0647678D02*
X0374550Y0659907D01*
X0369106Y0647678D02*
X0369825Y0647358D01*
X0473046Y0649260D02*
X0475830Y0646476D01*
X0476665Y0647311D01*
X0466365Y0655941D02*
X0467200Y0656777D01*
X0466365Y0655941D02*
X0469148Y0653158D01*
X0483903Y0654550D02*
X0484460Y0655106D01*
X0474995Y0664572D02*
X0484460Y0655106D01*
X0474438Y0664015D02*
X0474995Y0664572D01*
X0489566Y0632867D02*
X0527755D01*
X0489566Y0592709D02*
X0527755D01*
X0536540Y0628101D02*
Y0639601D01*
X0542040D01*
Y0628101D02*
Y0639601D01*
X0536540Y0628101D02*
X0542040D01*
X0548660Y0588870D02*
X0560078D01*
Y0597532D01*
X0548660D02*
X0560078D01*
X0548660Y0588870D02*
Y0597532D01*
X0536651Y0581829D02*
Y0587329D01*
Y0581829D02*
X0548150D01*
Y0587329D01*
X0536651D02*
X0548150D01*
X0560355Y0581829D02*
Y0587329D01*
X0548855D02*
X0560355D01*
X0548855Y0581829D02*
Y0587329D01*
Y0581829D02*
X0560355D01*
X0426219Y0489965D02*
Y0496125D01*
X0430187Y0481986D02*
X0437243Y0481952D01*
X0441998Y0489965D02*
Y0496125D01*
X0438818D02*
X0441998D01*
X0426219D02*
X0428582D01*
X0407361Y0520111D02*
X0418779D01*
X0407361Y0511449D02*
Y0520111D01*
Y0511449D02*
X0418779D01*
Y0520111D01*
X0393751Y0431332D02*
X0395194Y0428498D01*
X0389705Y0425702D02*
X0395194Y0428498D01*
X0373973Y0438929D02*
X0380407Y0426300D01*
X0384470Y0449546D02*
X0385886Y0446766D01*
X0378981Y0446749D02*
X0384470Y0449546D01*
X0424684Y0466121D02*
Y0474520D01*
Y0454835D02*
Y0463234D01*
X0408148Y0454835D02*
X0414973D01*
X0424684D01*
X0408148Y0474520D02*
X0424684D01*
X0408148Y0454835D02*
Y0474520D01*
X0417755Y0428142D02*
Y0451764D01*
X0457912D01*
Y0428142D02*
Y0451764D01*
X0417755Y0428142D02*
X0457912D01*
X0464212Y0463851D02*
Y0475426D01*
X0438267D02*
X0464212D01*
X0438267Y0463851D02*
Y0475426D01*
Y0463851D02*
X0464212D01*
X0462676Y0463930D02*
Y0475347D01*
X0488070Y0488496D02*
X0500668D01*
X0488070Y0479048D02*
X0500668D01*
X0501881Y0469496D02*
Y0477496D01*
X0487881Y0469496D02*
X0501881D01*
X0487881D02*
Y0477496D01*
X0501881D01*
Y0460756D02*
Y0468756D01*
X0487881Y0460756D02*
X0501881D01*
X0487881D02*
Y0468756D01*
X0501881D01*
X0556303Y0446792D02*
X0557796Y0449600D01*
X0563235Y0446708D01*
X0561424Y0426233D02*
X0568078Y0438748D01*
X0546706Y0428743D02*
X0548171Y0431497D01*
X0546706Y0428743D02*
X0552145Y0425851D01*
X0526851Y0465983D02*
Y0471483D01*
X0515351D02*
X0526851D01*
X0515351Y0465983D02*
Y0471483D01*
Y0465983D02*
X0526851D01*
X0526851Y0459723D02*
Y0465223D01*
X0515351D02*
X0526851D01*
X0515351Y0459723D02*
Y0465223D01*
Y0459723D02*
X0526851D01*
X0547503Y0509058D02*
X0546191D01*
X0545536Y0508402D01*
Y0505778D01*
X0546191Y0505123D01*
X0547503D01*
X0548159Y0505778D01*
Y0508402D01*
X0547503Y0509058D01*
X0549471Y0503811D02*
Y0507746D01*
X0551439D01*
X0552095Y0507090D01*
Y0505778D01*
X0551439Y0505123D01*
X0549471D01*
X0555375D02*
X0554063D01*
X0553407Y0505778D01*
Y0507090D01*
X0554063Y0507746D01*
X0555375D01*
X0556031Y0507090D01*
Y0506434D01*
X0553407D01*
X0557343Y0505123D02*
Y0507746D01*
X0559311D01*
X0559967Y0507090D01*
Y0505123D01*
X0563902Y0507746D02*
X0561934D01*
X0561278Y0507090D01*
Y0505778D01*
X0561934Y0505123D01*
X0563902D01*
X0565870D02*
X0567182D01*
X0567838Y0505778D01*
Y0507090D01*
X0567182Y0507746D01*
X0565870D01*
X0565214Y0507090D01*
Y0505778D01*
X0565870Y0505123D01*
X0569150D02*
X0570462D01*
X0569806D01*
Y0509058D01*
X0569150D01*
X0572430Y0505123D02*
X0573742D01*
X0573086D01*
Y0509058D01*
X0572430D01*
X0576365Y0507746D02*
X0577677D01*
X0578333Y0507090D01*
Y0505123D01*
X0576365D01*
X0575709Y0505778D01*
X0576365Y0506434D01*
X0578333D01*
X0579645Y0507746D02*
Y0505123D01*
Y0506434D01*
X0580301Y0507090D01*
X0580957Y0507746D01*
X0581613D01*
X0543568Y0497198D02*
Y0501134D01*
X0545536D01*
X0546191Y0500478D01*
Y0499166D01*
X0545536Y0498510D01*
X0543568D01*
X0544879D02*
X0546191Y0497198D01*
X0548159Y0499822D02*
X0549471D01*
X0550127Y0499166D01*
Y0497198D01*
X0548159D01*
X0547503Y0497854D01*
X0548159Y0498510D01*
X0550127D01*
X0551439Y0497198D02*
Y0499822D01*
X0553407D01*
X0554063Y0499166D01*
Y0497198D01*
X0556687Y0495886D02*
X0557343D01*
X0557999Y0496542D01*
Y0499822D01*
X0556031D01*
X0555375Y0499166D01*
Y0497854D01*
X0556031Y0497198D01*
X0557999D01*
X0561278D02*
X0559967D01*
X0559311Y0497854D01*
Y0499166D01*
X0559967Y0499822D01*
X0561278D01*
X0561934Y0499166D01*
Y0498510D01*
X0559311D01*
X0563246Y0499822D02*
Y0497198D01*
Y0498510D01*
X0563902Y0499166D01*
X0564558Y0499822D01*
X0565214D01*
X0569806Y0501134D02*
X0567182D01*
Y0497198D01*
X0569806D01*
X0567182Y0499166D02*
X0568494D01*
X0573742Y0501134D02*
Y0497198D01*
X0571774D01*
X0571118Y0497854D01*
Y0499166D01*
X0571774Y0499822D01*
X0573742D01*
X0576365Y0495886D02*
X0577021D01*
X0577677Y0496542D01*
Y0499822D01*
X0575709D01*
X0575054Y0499166D01*
Y0497854D01*
X0575709Y0497198D01*
X0577677D01*
X0580957D02*
X0579645D01*
X0578989Y0497854D01*
Y0499166D01*
X0579645Y0499822D01*
X0580957D01*
X0581613Y0499166D01*
Y0498510D01*
X0578989D01*
X0569150Y0493209D02*
Y0490585D01*
X0570462Y0489273D01*
X0571774Y0490585D01*
Y0493209D01*
X0573086Y0492553D02*
X0573742Y0493209D01*
X0575054D01*
X0575709Y0492553D01*
Y0489929D01*
X0575054Y0489273D01*
X0573742D01*
X0573086Y0489929D01*
Y0492553D01*
X0577021Y0489273D02*
Y0489929D01*
X0577677D01*
Y0489273D01*
X0577021D01*
X0580301D02*
X0581613D01*
X0580957D01*
Y0493209D01*
X0580301Y0492553D01*
X0411168Y0468221D02*
X0410512Y0468877D01*
Y0470189D01*
X0409856Y0470845D01*
X0411168Y0458378D02*
X0410512Y0459034D01*
Y0460346D01*
X0409856Y0461002D01*
X0421535Y0468221D02*
Y0470845D01*
Y0458378D02*
Y0461002D01*
X0420223Y0459690D02*
X0422847D01*
D17*
X0386362Y0497813D02*
G03*
X0386362Y0500701I0000000J0001444D01*
G01*
X0579393Y0525248D02*
X0583527D01*
Y0532926D01*
X0579393D02*
X0583527D01*
X0579393Y0525248D02*
Y0532926D01*
X0579491Y0563142D02*
Y0570622D01*
X0583428D01*
Y0563142D02*
Y0570622D01*
X0579491Y0563142D02*
X0583428D01*
X0425983Y0690819D02*
X0516534D01*
Y0722315D01*
X0425983D02*
X0516534D01*
X0425983Y0690819D02*
Y0722315D01*
X0439900Y0556351D02*
Y0564028D01*
X0444034D01*
Y0556351D02*
Y0564028D01*
X0439900Y0556351D02*
X0444034D01*
X0421830Y0585445D02*
X0422617Y0586233D01*
X0440530Y0565367D02*
X0442696D01*
Y0567532D01*
X0421830Y0565367D02*
X0423995D01*
X0421830D02*
Y0567532D01*
X0442696Y0584067D02*
Y0586233D01*
X0440530D02*
X0442696D01*
X0422617D02*
X0423995D01*
X0421830Y0584067D02*
Y0585445D01*
X0422617Y0607965D02*
Y0615642D01*
X0426751D01*
Y0607965D02*
Y0615642D01*
X0422617Y0607965D02*
X0426751D01*
X0430885Y0631705D02*
X0438562D01*
Y0627571D02*
Y0631705D01*
X0430885Y0627571D02*
X0438562D01*
X0430885D02*
Y0631705D01*
Y0621626D02*
X0438562D01*
X0430885D02*
Y0625760D01*
X0438562D01*
Y0621626D02*
Y0625760D01*
X0413562Y0631705D02*
X0421239D01*
Y0627571D02*
Y0631705D01*
X0413562Y0627571D02*
X0421239D01*
X0413562D02*
Y0631705D01*
X0484330Y0666134D02*
X0488267D01*
X0484330Y0658654D02*
Y0666134D01*
Y0658654D02*
X0488267D01*
Y0666134D01*
X0488759Y0658516D02*
X0496436D01*
X0488759D02*
Y0662650D01*
X0496436D01*
Y0658516D02*
Y0662650D01*
X0496581Y0668184D02*
X0502009Y0662755D01*
X0499086Y0659832D02*
X0502009Y0662755D01*
X0493658Y0665261D02*
X0499086Y0659832D01*
X0493658Y0665261D02*
X0496581Y0668184D01*
X0499290Y0665504D02*
X0503227D01*
Y0672985D01*
X0499290D02*
X0503227D01*
X0499290Y0665504D02*
Y0672985D01*
X0501613Y0673969D02*
X0502827D01*
X0501652Y0676331D02*
X0502834D01*
X0502827D02*
X0505589D01*
X0502827Y0673969D02*
X0505590D01*
X0502827D02*
Y0675150D01*
Y0673969D02*
Y0676331D01*
X0511023Y0668969D02*
X0514960D01*
Y0676449D01*
X0511023D02*
X0514960D01*
X0511023Y0668969D02*
Y0676449D01*
X0525393Y0667291D02*
X0529330D01*
X0532952D02*
X0536889D01*
X0529861Y0677040D02*
X0532420D01*
X0536889Y0667291D02*
Y0674579D01*
X0525393Y0667291D02*
Y0674579D01*
X0532952Y0663521D02*
X0536889D01*
X0525392D02*
X0529329D01*
X0529861Y0653772D02*
X0532420D01*
X0525392Y0656233D02*
Y0663521D01*
X0536889Y0656233D02*
Y0663521D01*
X0522893Y0633871D02*
Y0638004D01*
Y0633871D02*
X0530570D01*
Y0638004D01*
X0522893D02*
X0530570D01*
X0539369Y0612780D02*
Y0619207D01*
X0546062Y0612770D02*
Y0619197D01*
X0534094Y0612386D02*
X0538031D01*
Y0619866D01*
X0534094D02*
X0538031D01*
X0534094Y0612386D02*
Y0619866D01*
X0542519Y0620772D02*
Y0624709D01*
X0535039D02*
X0542519D01*
X0535039Y0620772D02*
Y0624709D01*
Y0620772D02*
X0542519D01*
X0547322Y0612347D02*
X0551259D01*
Y0619827D01*
X0547322D02*
X0551259D01*
X0547322Y0612347D02*
Y0619827D01*
X0543503Y0606953D02*
Y0610890D01*
X0536023D02*
X0543503D01*
X0536023Y0606953D02*
Y0610890D01*
Y0606953D02*
X0543503D01*
X0543897D02*
Y0610890D01*
Y0606953D02*
X0551377D01*
Y0610890D01*
X0543897D02*
X0551377D01*
X0551771Y0614473D02*
X0555708D01*
X0551771Y0606992D02*
Y0614473D01*
Y0606992D02*
X0555708D01*
Y0614473D01*
X0536475Y0597099D02*
X0544349D01*
X0536475Y0589225D02*
X0544349D01*
X0536475D02*
Y0597099D01*
X0544349Y0589225D02*
Y0597099D01*
X0544909Y0580668D02*
X0549633D01*
X0544909Y0572794D02*
Y0580668D01*
Y0572794D02*
X0549633D01*
Y0576337D01*
Y0580668D01*
X0525505Y0562556D02*
Y0565902D01*
Y0562556D02*
X0528852D01*
X0525505Y0577713D02*
Y0581060D01*
X0528852D01*
X0540663D02*
X0544009D01*
Y0577713D02*
Y0581060D01*
X0540663Y0562556D02*
X0544009D01*
Y0565902D01*
X0514192Y0561941D02*
X0518326D01*
X0514192Y0554264D02*
Y0561941D01*
Y0554264D02*
X0518326D01*
Y0561941D01*
X0524280Y0530150D02*
X0530708D01*
X0524290Y0536843D02*
X0530718D01*
X0518306Y0455307D02*
Y0459244D01*
Y0455307D02*
X0525786D01*
Y0459244D01*
X0518306D02*
X0525786D01*
X0519929Y0548410D02*
Y0553327D01*
X0516586D02*
X0519929D01*
X0516586Y0548410D02*
Y0553327D01*
Y0548410D02*
X0519929D01*
X0523621Y0538890D02*
Y0542827D01*
Y0538890D02*
X0531101D01*
Y0542827D01*
X0523621D02*
X0531101D01*
X0533267Y0535623D02*
X0537204D01*
Y0543103D01*
X0533267D02*
X0537204D01*
X0533267Y0535623D02*
Y0543103D01*
X0521338Y0531725D02*
Y0539205D01*
X0517401Y0531725D02*
X0521338D01*
X0517401D02*
Y0539205D01*
X0521338D01*
X0533345Y0527748D02*
X0537282D01*
Y0535229D01*
X0533345D02*
X0537282D01*
X0533345Y0527748D02*
Y0535229D01*
X0523700Y0523378D02*
X0531180D01*
X0523700D02*
Y0527315D01*
X0531180D01*
Y0523378D02*
Y0527315D01*
X0517401Y0523811D02*
X0521338D01*
Y0531292D01*
X0517401D02*
X0521338D01*
X0517401Y0523811D02*
Y0531292D01*
X0500336Y0540878D02*
Y0545796D01*
Y0540878D02*
X0503679D01*
Y0545796D01*
X0500336D02*
X0503679D01*
X0466613Y0508541D02*
Y0516809D01*
X0474881D01*
Y0508541D02*
Y0516809D01*
X0466613Y0508541D02*
X0474881D01*
X0431416Y0520307D02*
X0435353D01*
Y0527788D01*
X0431416D02*
X0435353D01*
X0431416Y0520307D02*
Y0527788D01*
X0423660Y0511843D02*
X0431534D01*
X0423660Y0519717D02*
X0431534D01*
Y0511843D02*
Y0519717D01*
X0423660Y0511843D02*
Y0519717D01*
X0386362Y0500701D02*
Y0504178D01*
Y0494336D02*
Y0497813D01*
X0406046Y0494336D02*
Y0504178D01*
X0386362D02*
X0406046D01*
X0386362Y0494336D02*
X0406046D01*
X0476849Y0440916D02*
X0476849Y0448204D01*
X0465353Y0440916D02*
X0465353Y0448204D01*
X0469822Y0438455D02*
X0472381Y0438455D01*
X0465353Y0448204D02*
X0469290Y0448204D01*
X0472912Y0448204D02*
X0476849Y0448204D01*
X0465398Y0435898D02*
X0473075Y0435898D01*
Y0431764D02*
Y0435898D01*
X0465398Y0431764D02*
X0473075Y0431764D01*
X0465398Y0431764D02*
Y0435898D01*
X0436751Y0461193D02*
X0444428D01*
Y0457059D02*
Y0461193D01*
X0436751Y0457059D02*
X0444428D01*
X0436751D02*
Y0461193D01*
X0436777Y0452750D02*
Y0456687D01*
Y0452750D02*
X0444257D01*
Y0456687D01*
X0436777D02*
X0444257D01*
X0444763Y0457197D02*
Y0461134D01*
Y0457197D02*
X0452243D01*
Y0461134D01*
X0444763D02*
X0452243D01*
X0503050Y0497965D02*
X0510727D01*
Y0493831D02*
Y0497965D01*
X0503050Y0493831D02*
X0510727D01*
X0503050D02*
Y0497965D01*
X0480904Y0489796D02*
Y0493733D01*
X0473424D02*
X0480904D01*
X0473424Y0489796D02*
Y0493733D01*
Y0489796D02*
X0480904D01*
Y0494126D02*
Y0498063D01*
X0473424D02*
X0480904D01*
X0473424Y0494126D02*
Y0498063D01*
Y0494126D02*
X0480904D01*
X0482853Y0491154D02*
X0490530D01*
X0482853D02*
Y0495288D01*
X0490530D01*
Y0491154D02*
Y0495288D01*
X0483842Y0476961D02*
Y0480898D01*
Y0484520D02*
Y0488457D01*
X0474093Y0481429D02*
Y0483989D01*
X0476554Y0488457D02*
X0483842D01*
X0476554Y0476961D02*
X0483842D01*
X0479684Y0471528D02*
Y0475465D01*
Y0471528D02*
X0487164D01*
Y0475465D01*
X0479684D02*
X0487164D01*
X0509290Y0455307D02*
Y0459244D01*
Y0455307D02*
X0516771D01*
Y0459244D01*
X0509290D02*
X0516771D01*
X0517952Y0446804D02*
X0521889D01*
Y0454284D01*
X0517952D02*
X0521889D01*
X0517952Y0446804D02*
Y0454284D01*
X0527046Y0429874D02*
Y0433811D01*
Y0429874D02*
X0534526D01*
Y0433811D01*
X0527046D02*
X0534526D01*
X0521987Y0438792D02*
Y0446469D01*
X0517853Y0438792D02*
X0521987D01*
X0517853D02*
Y0446469D01*
X0521987D01*
X0502499Y0410209D02*
X0510176D01*
X0502499D02*
Y0414343D01*
X0510176D01*
Y0410209D02*
Y0414343D01*
X0483247Y0410367D02*
Y0418044D01*
X0487381D01*
Y0410367D02*
Y0418044D01*
X0483247Y0410367D02*
X0487381D01*
X0452243Y0410898D02*
X0456180D01*
Y0418378D01*
X0452243D02*
X0456180D01*
X0452243Y0410898D02*
Y0418378D01*
D18*
X0482321Y0587236D02*
X0488227D01*
X0482321D02*
Y0589992D01*
X0488227D01*
Y0587236D02*
Y0589992D01*
X0482361Y0580543D02*
X0488267D01*
X0482361D02*
Y0583299D01*
X0488267D01*
Y0580543D02*
Y0583299D01*
X0553326Y0567305D02*
X0559232D01*
Y0564549D02*
Y0567305D01*
X0553326Y0564549D02*
X0559232D01*
X0553326D02*
Y0567305D01*
X0512165Y0544362D02*
X0514921D01*
X0512165Y0538457D02*
Y0544362D01*
Y0538457D02*
X0514921D01*
Y0544362D01*
X0508803Y0544322D02*
X0511558D01*
X0508803Y0538417D02*
Y0544322D01*
Y0538417D02*
X0511558D01*
Y0544322D01*
X0505235Y0544323D02*
X0507991D01*
X0505235Y0538417D02*
Y0544323D01*
Y0538417D02*
X0507991D01*
Y0544323D01*
X0500905Y0586292D02*
Y0589048D01*
Y0586292D02*
X0506810D01*
Y0589048D01*
X0500905Y0589048D02*
X0506810Y0589048D01*
X0506652Y0558930D02*
X0509408D01*
Y0564835D01*
X0506652D02*
X0509408D01*
X0506652Y0558930D02*
Y0564835D01*
X0513041Y0547245D02*
X0514990Y0549194D01*
X0510814Y0553370D02*
X0514990Y0549194D01*
X0508865Y0551421D02*
X0510814Y0553370D01*
X0508865Y0551421D02*
X0513041Y0547245D01*
X0500834Y0549431D02*
X0502783Y0547482D01*
X0506959Y0551658D01*
X0505010Y0553607D02*
X0506959Y0551658D01*
X0500834Y0549431D02*
X0505010Y0553607D01*
X0493779Y0541961D02*
Y0544717D01*
Y0541961D02*
X0499684D01*
Y0544717D01*
X0493779D02*
X0499684D01*
X0487519Y0541961D02*
Y0544717D01*
Y0541961D02*
X0493424D01*
Y0544717D01*
X0487519D02*
X0493424D01*
X0526565Y0549484D02*
Y0552240D01*
X0520660D02*
X0526565D01*
X0520660Y0549484D02*
Y0552240D01*
Y0549484D02*
X0526565D01*
X0532983D02*
Y0552240D01*
X0527077D02*
X0532983D01*
X0527077Y0549484D02*
Y0552240D01*
Y0549484D02*
X0532983D01*
X0446239Y0605425D02*
X0448995D01*
X0446239Y0599520D02*
Y0605425D01*
Y0599520D02*
X0448995D01*
Y0605425D01*
X0447665Y0596332D02*
X0449614Y0594383D01*
X0443489Y0592156D02*
X0447665Y0596332D01*
X0443489Y0592156D02*
X0445438Y0590208D01*
X0449614Y0594383D01*
X0437408Y0613474D02*
X0439795Y0612097D01*
X0434455Y0608360D02*
X0437408Y0613474D01*
X0434455Y0608360D02*
X0436842Y0606982D01*
X0439795Y0612097D01*
X0434428Y0598339D02*
X0437184D01*
X0434428Y0592433D02*
Y0598339D01*
Y0592433D02*
X0437184D01*
Y0598339D01*
X0431279Y0589383D02*
Y0592138D01*
Y0589383D02*
X0437184D01*
Y0592138D01*
X0431279D02*
X0437184D01*
X0424881Y0599717D02*
X0427637D01*
X0424881Y0593811D02*
Y0599717D01*
Y0593811D02*
X0427637D01*
Y0599717D01*
X0424881Y0590744D02*
Y0593500D01*
Y0590744D02*
X0430787D01*
Y0593500D01*
X0424881D02*
X0430787D01*
X0415334Y0608969D02*
X0418090D01*
X0415334Y0603063D02*
Y0608969D01*
Y0603063D02*
X0418090D01*
Y0608969D01*
X0418483Y0599717D02*
X0421239D01*
X0418483Y0593811D02*
Y0599717D01*
Y0593811D02*
X0421239D01*
Y0599717D01*
X0409310Y0608969D02*
X0412066D01*
X0409310Y0603063D02*
Y0608969D01*
Y0603063D02*
X0412066D01*
Y0608969D01*
X0409310Y0599717D02*
X0412066D01*
X0409310Y0593811D02*
Y0599717D01*
Y0593811D02*
X0412066D01*
Y0599717D01*
X0415334Y0590761D02*
Y0593516D01*
Y0590761D02*
X0421239D01*
Y0593516D01*
X0415334D02*
X0421239D01*
X0412066Y0590760D02*
Y0593516D01*
X0406160D02*
X0412066D01*
X0406160Y0590760D02*
Y0593516D01*
Y0590760D02*
X0412066D01*
X0443188Y0599520D02*
X0445943D01*
Y0605426D01*
X0443188D02*
X0445943D01*
X0443188Y0599520D02*
Y0605426D01*
X0446239Y0605721D02*
Y0608477D01*
Y0605721D02*
X0452145D01*
Y0608477D01*
X0446239D02*
X0452145D01*
X0446239Y0608772D02*
X0448995D01*
Y0614678D01*
X0446239D02*
X0448995D01*
X0446239Y0608772D02*
Y0614678D01*
X0446239Y0596469D02*
Y0599225D01*
Y0596469D02*
X0452145D01*
Y0599225D01*
X0446239D02*
X0452145D01*
X0441332Y0589999D02*
X0443281Y0591948D01*
X0441332Y0589999D02*
X0445508Y0585823D01*
X0447457Y0587772D01*
X0443281Y0591948D02*
X0447457Y0587772D01*
X0439859Y0612283D02*
X0441237Y0614670D01*
X0436122Y0617623D02*
X0441237Y0614670D01*
X0434745Y0615236D02*
X0436122Y0617623D01*
X0434745Y0615236D02*
X0439859Y0612283D01*
X0434377Y0608199D02*
X0436763Y0606821D01*
X0431424Y0603085D02*
X0434377Y0608199D01*
X0431424Y0603085D02*
X0433811Y0601707D01*
X0436763Y0606821D01*
X0431279Y0598635D02*
Y0601391D01*
Y0598635D02*
X0437184D01*
Y0601391D01*
X0431279D02*
X0437184D01*
X0431278Y0592434D02*
X0434034D01*
Y0598339D01*
X0431278D02*
X0434034D01*
X0431278Y0592434D02*
Y0598339D01*
X0437479Y0592434D02*
X0440235D01*
Y0598339D01*
X0437479D02*
X0440235D01*
X0437479Y0592434D02*
Y0598339D01*
X0421830Y0602866D02*
X0424586D01*
X0421830Y0596961D02*
Y0602866D01*
Y0596961D02*
X0424586D01*
Y0602866D01*
X0424881Y0600012D02*
X0427636D01*
Y0605918D01*
X0424881D02*
X0427636D01*
X0424881Y0600012D02*
Y0605918D01*
X0421829Y0590761D02*
X0424585D01*
Y0596666D01*
X0421829D02*
X0424585D01*
X0421829Y0590761D02*
Y0596666D01*
X0428030Y0593812D02*
X0430786D01*
Y0599717D01*
X0428030D02*
X0430786D01*
X0428030Y0593812D02*
Y0599717D01*
X0415334Y0618516D02*
Y0621272D01*
Y0618516D02*
X0421239D01*
Y0621272D01*
X0415334D02*
X0421239D01*
X0415334Y0609265D02*
Y0612020D01*
Y0609265D02*
X0421239D01*
Y0612020D01*
X0415334D02*
X0421239D01*
X0415334Y0618221D02*
X0418090D01*
X0415334Y0612315D02*
Y0618221D01*
Y0612315D02*
X0418090D01*
Y0618221D01*
X0415334Y0600012D02*
Y0602768D01*
Y0600012D02*
X0421239D01*
Y0602768D01*
X0415334D02*
X0421239D01*
X0415334Y0599717D02*
X0418090D01*
X0415334Y0593811D02*
Y0599717D01*
Y0593811D02*
X0418090D01*
Y0599717D01*
X0412066Y0618516D02*
Y0621272D01*
X0406160D02*
X0412066D01*
X0406160Y0618516D02*
Y0621272D01*
Y0618516D02*
X0412066D01*
Y0609264D02*
Y0612020D01*
X0406160D02*
X0412066D01*
X0406160Y0609264D02*
Y0612020D01*
Y0609264D02*
X0412066D01*
X0409310Y0612316D02*
X0412066D01*
Y0618221D01*
X0409310D02*
X0412066D01*
X0409310Y0612316D02*
Y0618221D01*
X0412066Y0600012D02*
Y0602768D01*
X0406160D02*
X0412066D01*
X0406160Y0600012D02*
Y0602768D01*
Y0600012D02*
X0412066D01*
X0406161Y0599717D02*
X0408917D01*
X0406161Y0593811D02*
Y0599717D01*
Y0593811D02*
X0408917D01*
Y0599717D01*
X0412321Y0593812D02*
X0415077D01*
Y0599717D01*
X0412321D02*
X0415077D01*
X0412321Y0593812D02*
Y0599717D01*
X0403069Y0590780D02*
X0405825D01*
Y0596686D01*
X0403069D02*
X0405825D01*
X0403069Y0590780D02*
Y0596686D01*
X0399959Y0590741D02*
X0402715D01*
Y0596646D01*
X0399959D02*
X0402715D01*
X0399959Y0590741D02*
Y0596646D01*
X0388306Y0603930D02*
X0391062D01*
Y0609835D01*
X0388306D02*
X0391062D01*
X0388306Y0603930D02*
Y0609835D01*
X0383188Y0603930D02*
X0385944D01*
Y0609835D01*
X0383188D02*
X0385944D01*
X0383188Y0603930D02*
Y0609835D01*
X0379960Y0606685D02*
X0382716D01*
X0379960Y0600780D02*
Y0606685D01*
Y0600780D02*
X0382716D01*
Y0606685D01*
X0391180Y0588339D02*
Y0591095D01*
Y0588339D02*
X0397086D01*
Y0591095D01*
X0391180D02*
X0397086D01*
X0394356Y0582099D02*
X0397112D01*
Y0588005D01*
X0394356D02*
X0397112D01*
X0394356Y0582099D02*
Y0588005D01*
X0397505Y0582099D02*
X0400261D01*
Y0588005D01*
X0397505D02*
X0400261D01*
X0397505Y0582099D02*
Y0588005D01*
X0412401Y0580858D02*
X0415157D01*
X0412401Y0574953D02*
Y0580858D01*
Y0574953D02*
X0415157D01*
Y0580858D01*
X0406062Y0578142D02*
Y0580898D01*
Y0578142D02*
X0411968D01*
Y0580898D01*
X0406062D02*
X0411968D01*
X0405707Y0578142D02*
Y0580898D01*
X0399802D02*
X0405707D01*
X0399802Y0578142D02*
Y0580898D01*
Y0578142D02*
X0405707D01*
X0414144Y0573527D02*
X0416093Y0571578D01*
X0409968Y0569351D02*
X0414144Y0573527D01*
X0409968Y0569351D02*
X0411917Y0567402D01*
X0416093Y0571578D01*
X0404063Y0560634D02*
X0406012Y0562582D01*
X0404063Y0560634D02*
X0408239Y0556458D01*
X0410188Y0558406D01*
X0406012Y0562582D02*
X0410188Y0558406D01*
X0414459Y0550277D02*
X0416407Y0552225D01*
X0412231Y0556401D02*
X0416407Y0552225D01*
X0410283Y0554453D02*
X0412231Y0556401D01*
X0410283Y0554453D02*
X0414459Y0550277D01*
X0433424Y0552394D02*
Y0555150D01*
Y0552394D02*
X0439330D01*
Y0555150D01*
X0433424D02*
X0439330D01*
X0543699Y0669599D02*
X0546455D01*
Y0675505D01*
X0543699D02*
X0546455D01*
X0543699Y0669599D02*
Y0675505D01*
X0548621Y0673221D02*
X0551377D01*
X0548621Y0667315D02*
Y0673221D01*
Y0667315D02*
X0551377D01*
Y0673221D01*
X0548621Y0666961D02*
X0551377D01*
X0548621Y0661055D02*
Y0666961D01*
Y0661055D02*
X0551377D01*
Y0666961D01*
X0547912Y0656489D02*
X0556967D01*
X0547912D02*
Y0660819D01*
X0556967Y0656489D02*
Y0660819D01*
X0547912D02*
X0556967D01*
X0537243Y0598517D02*
Y0601272D01*
Y0598517D02*
X0543149D01*
Y0601272D01*
X0537243D02*
X0543149D01*
X0533660Y0589224D02*
Y0591980D01*
X0527754D02*
X0533660D01*
X0527754Y0589224D02*
Y0591980D01*
Y0589224D02*
X0533660D01*
X0532913Y0588516D02*
X0535669D01*
X0532913Y0582611D02*
Y0588516D01*
Y0582611D02*
X0535669D01*
Y0588516D01*
X0545077Y0559245D02*
Y0565150D01*
X0547833D01*
Y0559245D02*
Y0565150D01*
X0545077Y0559245D02*
X0547833D01*
X0534172Y0559087D02*
X0540077D01*
X0534172D02*
Y0561843D01*
X0540077D01*
Y0559087D02*
Y0561843D01*
X0522361Y0583103D02*
Y0585859D01*
Y0583103D02*
X0528267D01*
Y0585859D01*
X0522361Y0585859D02*
X0528267Y0585859D01*
X0547431Y0546339D02*
X0550187D01*
Y0552245D01*
X0547431D02*
X0550187D01*
X0547431Y0546339D02*
Y0552245D01*
X0427322Y0417118D02*
X0430078D01*
X0427322Y0411213D02*
Y0417118D01*
Y0411213D02*
X0430078D01*
Y0417118D01*
X0556802Y0551969D02*
X0559558D01*
X0556802Y0546063D02*
Y0551969D01*
Y0546063D02*
X0559558D01*
Y0551969D01*
X0556447Y0549484D02*
Y0552240D01*
X0550542D02*
X0556447D01*
X0550542Y0549484D02*
Y0552240D01*
Y0549484D02*
X0556447D01*
X0480275Y0508102D02*
Y0517157D01*
X0475944Y0508102D02*
X0480275D01*
X0475944Y0517157D02*
X0480275D01*
X0475944Y0508102D02*
Y0517157D01*
X0480944Y0516395D02*
X0483700D01*
X0480944Y0510490D02*
Y0516395D01*
Y0510490D02*
X0483700D01*
Y0516395D01*
X0457913Y0517631D02*
Y0520387D01*
Y0517631D02*
X0463818D01*
Y0520387D01*
X0457913D02*
X0463818D01*
X0457913Y0506765D02*
Y0509520D01*
Y0506765D02*
X0463818D01*
Y0509520D01*
X0457913D02*
X0463818D01*
X0430786Y0507473D02*
Y0510228D01*
X0424881D02*
X0430786D01*
X0424881Y0507473D02*
Y0510228D01*
Y0507473D02*
X0430786D01*
X0406889Y0502236D02*
X0409645D01*
X0406889Y0496331D02*
Y0502236D01*
Y0496331D02*
X0409645D01*
Y0502236D01*
X0388070Y0515662D02*
Y0518418D01*
Y0515662D02*
X0393976D01*
Y0518418D01*
X0388070D02*
X0393976D01*
X0382085Y0504953D02*
X0384841D01*
Y0510859D01*
X0382085D02*
X0384841D01*
X0382085Y0504953D02*
Y0510859D01*
X0424172Y0411213D02*
X0426928D01*
Y0417119D01*
X0424172D02*
X0426928D01*
X0424172Y0411213D02*
Y0417119D01*
X0430472Y0417118D02*
X0433228D01*
X0430472Y0411213D02*
Y0417118D01*
Y0411213D02*
X0433228D01*
Y0417118D01*
X0414054Y0568972D02*
X0418230Y0573148D01*
X0420179Y0571200D01*
X0416003Y0567024D02*
X0420179Y0571200D01*
X0414054Y0568972D02*
X0416003Y0567024D01*
X0414378Y0573722D02*
X0418553Y0577898D01*
X0420502Y0575949D01*
X0416326Y0571773D02*
X0420502Y0575949D01*
X0414378Y0573722D02*
X0416326Y0571773D01*
X0525274Y0588732D02*
Y0591488D01*
X0519369D02*
X0525274D01*
X0519369Y0588732D02*
Y0591488D01*
Y0588732D02*
X0525274D01*
D19*
X0505038Y0552512D02*
X0505865D01*
X0510196Y0559166D02*
X0511023D01*
X0505038D02*
X0505826D01*
X0511023Y0557709D02*
Y0559166D01*
X0505038Y0552512D02*
Y0559166D01*
X0509960Y0552512D02*
X0511023D01*
Y0557709D01*
X0488874Y0414363D02*
X0500528D01*
Y0399559D02*
Y0414363D01*
X0488874Y0399559D02*
X0500528D01*
X0488874D02*
Y0413300D01*
Y0414363D01*
X0368445Y0640976D02*
Y0638877D01*
X0369495Y0637828D01*
X0370544Y0638877D01*
Y0640976D01*
X0371594D02*
Y0637828D01*
Y0639402D01*
X0373693D01*
Y0640976D01*
Y0637828D01*
X0376841Y0640976D02*
X0374742D01*
Y0639402D01*
X0375792D01*
X0374742D01*
Y0637828D01*
X0454414Y0733085D02*
Y0729936D01*
X0455989D01*
X0456513Y0730461D01*
Y0732560D01*
X0455989Y0733085D01*
X0454414D01*
X0459137Y0729936D02*
X0458088D01*
X0457563Y0730461D01*
Y0731510D01*
X0458088Y0732035D01*
X0459137D01*
X0459662Y0731510D01*
Y0730986D01*
X0457563D01*
X0460711Y0732035D02*
X0461761Y0729936D01*
X0462811Y0732035D01*
X0465434Y0729936D02*
X0464385D01*
X0463860Y0730461D01*
Y0731510D01*
X0464385Y0732035D01*
X0465434D01*
X0465959Y0731510D01*
Y0730986D01*
X0463860D01*
X0467009Y0729936D02*
X0468058D01*
X0467533D01*
Y0733085D01*
X0467009D01*
X0470157Y0729936D02*
X0471207D01*
X0471732Y0730461D01*
Y0731510D01*
X0471207Y0732035D01*
X0470157D01*
X0469632Y0731510D01*
Y0730461D01*
X0470157Y0729936D01*
X0472781Y0728887D02*
Y0732035D01*
X0474355D01*
X0474880Y0731510D01*
Y0730461D01*
X0474355Y0729936D01*
X0472781D01*
X0477504D02*
X0476454D01*
X0475930Y0730461D01*
Y0731510D01*
X0476454Y0732035D01*
X0477504D01*
X0478029Y0731510D01*
Y0730986D01*
X0475930D01*
X0481177Y0733085D02*
Y0729936D01*
X0479603D01*
X0479078Y0730461D01*
Y0731510D01*
X0479603Y0732035D01*
X0481177D01*
X0485375Y0733085D02*
Y0729936D01*
X0486950D01*
X0487474Y0730461D01*
Y0730986D01*
Y0731510D01*
X0486950Y0732035D01*
X0485375D01*
X0488524D02*
Y0730461D01*
X0489049Y0729936D01*
X0490623D01*
Y0729411D01*
X0490098Y0728887D01*
X0489573D01*
X0490623Y0729936D02*
Y0732035D01*
X0465434Y0726821D02*
X0466484D01*
X0465959D01*
Y0723672D01*
X0465434D01*
X0466484D01*
X0468058D02*
Y0726821D01*
X0469632D01*
X0470157Y0726296D01*
Y0725246D01*
X0469632Y0724722D01*
X0468058D01*
X0469108D02*
X0470157Y0723672D01*
X0471207D02*
Y0726821D01*
X0473306Y0723672D01*
Y0726821D01*
X0474355Y0723672D02*
Y0725771D01*
X0475405Y0726821D01*
X0476454Y0725771D01*
Y0723672D01*
Y0725246D01*
X0474355D01*
X0479603Y0726296D02*
X0479078Y0726821D01*
X0478029D01*
X0477504Y0726296D01*
Y0725771D01*
X0478029Y0725246D01*
X0479078D01*
X0479603Y0724722D01*
Y0724197D01*
X0479078Y0723672D01*
X0478029D01*
X0477504Y0724197D01*
X0397241Y0437113D02*
X0396535Y0437342D01*
X0395600Y0436866D01*
X0395371Y0436160D01*
X0396323Y0434290D01*
X0397029Y0434060D01*
X0397965Y0434537D01*
X0398194Y0435243D01*
X0397717Y0436178D01*
X0396782Y0435701D01*
X0399367Y0435252D02*
X0397938Y0438057D01*
X0401237Y0436204D01*
X0399808Y0439010D01*
X0400743Y0439486D02*
X0402173Y0436681D01*
X0403575Y0437396D01*
X0403805Y0438101D01*
X0402852Y0439972D01*
X0402146Y0440201D01*
X0400743Y0439486D01*
X0541372Y0439314D02*
X0541155Y0440024D01*
X0540228Y0440516D01*
X0539518Y0440299D01*
X0539272Y0439836D01*
X0539489Y0439126D01*
X0540416Y0438634D01*
X0540633Y0437924D01*
X0540386Y0437461D01*
X0539677Y0437244D01*
X0538750Y0437736D01*
X0538533Y0438446D01*
X0544152Y0437836D02*
X0543935Y0438546D01*
X0543008Y0439038D01*
X0542298Y0438821D01*
X0541313Y0436968D01*
X0541530Y0436258D01*
X0542457Y0435766D01*
X0543166Y0435982D01*
X0545325Y0437806D02*
X0543847Y0435026D01*
X0545700Y0434041D01*
X0459447Y0377858D02*
X0461546D01*
X0459447Y0375760D01*
Y0375235D01*
X0459972Y0374710D01*
X0461021D01*
X0461546Y0375235D01*
X0458397D02*
X0457873Y0374710D01*
X0456823D01*
X0456298Y0375235D01*
Y0377334D01*
X0456823Y0377858D01*
X0457873D01*
X0458397Y0377334D01*
Y0375235D01*
X0396542Y0438318D02*
X0394672Y0437365D01*
X0395589Y0440189D01*
X0395351Y0440656D01*
X0394645Y0440886D01*
X0393710Y0440409D01*
X0393481Y0439703D01*
X0397477Y0438795D02*
X0397239Y0439262D01*
X0397707Y0439501D01*
X0397945Y0439033D01*
X0397477Y0438795D01*
X0398624Y0442324D02*
X0398853Y0443030D01*
X0399789Y0443506D01*
X0400494Y0443277D01*
X0400733Y0442809D01*
X0400503Y0442103D01*
X0401209Y0441874D01*
X0401447Y0441407D01*
X0401218Y0440701D01*
X0400283Y0440224D01*
X0399577Y0440454D01*
X0399339Y0440921D01*
X0399568Y0441627D01*
X0398862Y0441856D01*
X0398624Y0442324D01*
X0399568Y0441627D02*
X0400503Y0442103D01*
X0401191Y0444221D02*
X0402144Y0442351D01*
X0403556Y0441892D01*
X0404014Y0443304D01*
X0403061Y0445174D01*
X0542986Y0443015D02*
X0542769Y0443724D01*
X0541842Y0444217D01*
X0541132Y0444000D01*
X0540886Y0443537D01*
X0541103Y0442827D01*
X0542030Y0442335D01*
X0542247Y0441625D01*
X0542000Y0441161D01*
X0541291Y0440944D01*
X0540364Y0441437D01*
X0540147Y0442147D01*
X0544159Y0442985D02*
X0542681Y0440205D01*
X0544071Y0439466D01*
X0544780Y0439683D01*
X0545766Y0441537D01*
X0545549Y0442246D01*
X0544159Y0442985D01*
X0545461Y0438727D02*
X0546446Y0440581D01*
X0547866Y0441014D01*
X0548300Y0439595D01*
X0547314Y0437742D01*
X0548053Y0439132D01*
X0546200Y0440117D01*
X0483660Y0377859D02*
X0485759D01*
X0483660Y0375760D01*
Y0375235D01*
X0484185Y0374710D01*
X0485234D01*
X0485759Y0375235D01*
X0393501Y0444160D02*
X0392795Y0444389D01*
X0391860Y0443913D01*
X0391630Y0443207D01*
X0392583Y0441337D01*
X0393289Y0441108D01*
X0394224Y0441584D01*
X0394454Y0442290D01*
X0393977Y0443225D01*
X0393042Y0442749D01*
X0395627Y0442299D02*
X0394198Y0445104D01*
X0395600Y0445819D01*
X0396306Y0445590D01*
X0396783Y0444655D01*
X0396553Y0443949D01*
X0395151Y0443234D01*
X0397003Y0446534D02*
X0397938Y0447010D01*
X0397471Y0446772D01*
X0398900Y0443966D01*
X0398432Y0443728D01*
X0399368Y0444205D01*
X0400744Y0448440D02*
X0399808Y0447963D01*
X0399579Y0447257D01*
X0400532Y0445387D01*
X0401238Y0445158D01*
X0402173Y0445634D01*
X0402402Y0446340D01*
X0401449Y0448210D01*
X0400744Y0448440D01*
X0546962Y0449826D02*
X0546745Y0450535D01*
X0545819Y0451028D01*
X0545109Y0450811D01*
X0544123Y0448958D01*
X0544340Y0448248D01*
X0545267Y0447755D01*
X0545977Y0447972D01*
X0546469Y0448899D01*
X0545543Y0449392D01*
X0546657Y0447016D02*
X0548135Y0449796D01*
X0548511Y0446031D01*
X0549989Y0448811D01*
X0550915Y0448318D02*
X0549437Y0445538D01*
X0550827Y0444799D01*
X0551537Y0445016D01*
X0552522Y0446869D01*
X0552305Y0447579D01*
X0550915Y0448318D01*
X0541563Y0445237D02*
X0539710Y0446222D01*
X0542549Y0447090D01*
X0542795Y0447554D01*
X0542578Y0448263D01*
X0541651Y0448756D01*
X0540942Y0448539D01*
X0542490Y0444744D02*
X0542736Y0445208D01*
X0543200Y0444961D01*
X0542953Y0444498D01*
X0542490Y0444744D01*
X0546038Y0445829D02*
X0546748Y0446046D01*
X0547675Y0445553D01*
X0547892Y0444844D01*
X0547646Y0444380D01*
X0546936Y0444163D01*
X0547153Y0443454D01*
X0546906Y0442990D01*
X0546197Y0442773D01*
X0545270Y0443266D01*
X0545053Y0443976D01*
X0545299Y0444439D01*
X0546009Y0444656D01*
X0545792Y0445366D01*
X0546038Y0445829D01*
X0546009Y0444656D02*
X0546936Y0444163D01*
X0549065Y0444814D02*
X0548079Y0442961D01*
X0548513Y0441542D01*
X0549933Y0441975D01*
X0550918Y0443829D01*
X0390932Y0444570D02*
X0389979Y0446440D01*
X0390438Y0447852D01*
X0391849Y0447393D01*
X0392802Y0445523D01*
X0392087Y0446926D01*
X0390217Y0445973D01*
X0393737Y0446000D02*
X0392308Y0448805D01*
X0395608Y0446952D01*
X0394178Y0449758D01*
X0583069Y0572093D02*
X0579921D01*
Y0573667D01*
X0580445Y0574192D01*
X0581495D01*
X0582020Y0573667D01*
Y0572093D01*
Y0573143D02*
X0583069Y0574192D01*
Y0577341D02*
Y0575242D01*
X0580970Y0577341D01*
X0580445D01*
X0579921Y0576816D01*
Y0575767D01*
X0580445Y0575242D01*
Y0517500D02*
X0579921Y0516975D01*
Y0515926D01*
X0580445Y0515401D01*
X0582545D01*
X0583069Y0515926D01*
Y0516975D01*
X0582545Y0517500D01*
X0579921Y0520648D02*
Y0518549D01*
X0581495D01*
X0580970Y0519599D01*
Y0520124D01*
X0581495Y0520648D01*
X0582545D01*
X0583069Y0520124D01*
Y0519074D01*
X0582545Y0518549D01*
X0579921Y0523797D02*
X0580445Y0522747D01*
X0581495Y0521698D01*
X0582545D01*
X0583069Y0522223D01*
Y0523272D01*
X0582545Y0523797D01*
X0582020D01*
X0581495Y0523272D01*
Y0521698D01*
X0468726Y0624677D02*
X0467677D01*
X0468201D01*
Y0622053D01*
X0467677Y0621528D01*
X0467152D01*
X0466627Y0622053D01*
X0469776Y0624152D02*
X0470300Y0624677D01*
X0471350D01*
X0471875Y0624152D01*
Y0623628D01*
X0471350Y0623103D01*
X0471875Y0622578D01*
Y0622053D01*
X0471350Y0621528D01*
X0470300D01*
X0469776Y0622053D01*
Y0622578D01*
X0470300Y0623103D01*
X0469776Y0623628D01*
Y0624152D01*
X0470300Y0623103D02*
X0471350D01*
X0455327Y0600977D02*
X0456376D01*
X0455852D01*
Y0603601D01*
X0456376Y0604126D01*
X0456901D01*
X0457426Y0603601D01*
X0454277Y0600977D02*
X0452178D01*
Y0601502D01*
X0454277Y0603601D01*
Y0604126D01*
X0520498Y0577866D02*
X0519448D01*
X0519973D01*
Y0575242D01*
X0519448Y0574718D01*
X0518924D01*
X0518399Y0575242D01*
X0523646Y0577866D02*
X0522597Y0577341D01*
X0521547Y0576292D01*
Y0575242D01*
X0522072Y0574718D01*
X0523122D01*
X0523646Y0575242D01*
Y0575767D01*
X0523122Y0576292D01*
X0521547D01*
X0530577Y0556606D02*
X0529527D01*
X0530052D01*
Y0553982D01*
X0529527Y0553458D01*
X0529002D01*
X0528477Y0553982D01*
X0533725Y0556606D02*
X0531626D01*
Y0555032D01*
X0532676Y0555557D01*
X0533200D01*
X0533725Y0555032D01*
Y0553982D01*
X0533200Y0553458D01*
X0532151D01*
X0531626Y0553982D01*
X0494592Y0568850D02*
X0493543D01*
X0494067D01*
Y0566226D01*
X0493543Y0565702D01*
X0493018D01*
X0492493Y0566226D01*
X0495642Y0568326D02*
X0496167Y0568850D01*
X0497216D01*
X0497741Y0568326D01*
Y0567801D01*
X0497216Y0567276D01*
X0496691D01*
X0497216D01*
X0497741Y0566751D01*
Y0566226D01*
X0497216Y0565702D01*
X0496167D01*
X0495642Y0566226D01*
X0478608Y0534520D02*
X0477559D01*
X0478083D01*
Y0531896D01*
X0477559Y0531371D01*
X0477034D01*
X0476509Y0531896D01*
X0481757Y0531371D02*
X0479658D01*
X0481757Y0533470D01*
Y0533995D01*
X0481232Y0534520D01*
X0480182D01*
X0479658Y0533995D01*
X0550735Y0556515D02*
X0550210Y0557039D01*
X0549161D01*
X0548636Y0556515D01*
Y0554415D01*
X0549161Y0553891D01*
X0550210D01*
X0550735Y0554415D01*
X0553359Y0557039D02*
X0552309D01*
X0551785Y0556515D01*
Y0554415D01*
X0552309Y0553891D01*
X0553359D01*
X0553884Y0554415D01*
Y0556515D01*
X0553359Y0557039D01*
X0554933Y0553891D02*
Y0557039D01*
X0557032Y0553891D01*
Y0557039D01*
X0558082Y0556515D02*
X0558606Y0557039D01*
X0559656D01*
X0560181Y0556515D01*
Y0555990D01*
X0559656Y0555465D01*
X0559131D01*
X0559656D01*
X0560181Y0554940D01*
Y0554415D01*
X0559656Y0553891D01*
X0558606D01*
X0558082Y0554415D01*
X0475499Y0554900D02*
X0474974Y0555425D01*
X0473924D01*
X0473400Y0554900D01*
Y0552801D01*
X0473924Y0552277D01*
X0474974D01*
X0475499Y0552801D01*
X0478123Y0555425D02*
X0477073D01*
X0476548Y0554900D01*
Y0552801D01*
X0477073Y0552277D01*
X0478123D01*
X0478647Y0552801D01*
Y0554900D01*
X0478123Y0555425D01*
X0479697Y0552277D02*
Y0555425D01*
X0481796Y0552277D01*
Y0555425D01*
X0484945Y0552277D02*
X0482845D01*
X0484945Y0554376D01*
Y0554900D01*
X0484420Y0555425D01*
X0483370D01*
X0482845Y0554900D01*
X0511534Y0527645D02*
X0508385D01*
Y0529219D01*
X0508910Y0529744D01*
X0509960D01*
X0510484Y0529219D01*
Y0527645D01*
Y0528694D02*
X0511534Y0529744D01*
Y0532368D02*
X0508385D01*
X0509960Y0530793D01*
Y0532893D01*
X0508385Y0533942D02*
Y0536041D01*
X0508910D01*
X0511009Y0533942D01*
X0511534D01*
X0515904Y0527487D02*
X0512755D01*
Y0529062D01*
X0513280Y0529586D01*
X0514330D01*
X0514854Y0529062D01*
Y0527487D01*
Y0528537D02*
X0515904Y0529586D01*
Y0532210D02*
X0512755D01*
X0514330Y0530636D01*
Y0532735D01*
X0512755Y0535884D02*
X0513280Y0534834D01*
X0514330Y0533784D01*
X0515379D01*
X0515904Y0534309D01*
Y0535359D01*
X0515379Y0535884D01*
X0514854D01*
X0514330Y0535359D01*
Y0533784D01*
X0402886Y0599468D02*
X0402362Y0598943D01*
Y0597893D01*
X0402886Y0597369D01*
X0404985D01*
X0405510Y0597893D01*
Y0598943D01*
X0404985Y0599468D01*
X0402362Y0602616D02*
X0402886Y0601567D01*
X0403936Y0600517D01*
X0404985D01*
X0405510Y0601042D01*
Y0602092D01*
X0404985Y0602616D01*
X0404461D01*
X0403936Y0602092D01*
Y0600517D01*
X0398831Y0599546D02*
X0398306Y0599022D01*
Y0597972D01*
X0398831Y0597447D01*
X0400930D01*
X0401455Y0597972D01*
Y0599022D01*
X0400930Y0599546D01*
X0398306Y0602695D02*
Y0600596D01*
X0399881D01*
X0399356Y0601646D01*
Y0602170D01*
X0399881Y0602695D01*
X0400930D01*
X0401455Y0602170D01*
Y0601121D01*
X0400930Y0600596D01*
X0445065Y0584283D02*
Y0581660D01*
X0445590Y0581135D01*
X0446639D01*
X0447164Y0581660D01*
Y0584283D01*
X0448214Y0581135D02*
X0449263D01*
X0448739D01*
Y0584283D01*
X0448214Y0583759D01*
X0393438Y0573220D02*
X0395537Y0570072D01*
Y0573220D02*
X0393438Y0570072D01*
X0398686D02*
X0396587D01*
X0398686Y0572171D01*
Y0572696D01*
X0398161Y0573220D01*
X0397112D01*
X0396587Y0572696D01*
X0418884Y0556134D02*
X0420983Y0552985D01*
Y0556134D02*
X0418884Y0552985D01*
X0422033D02*
X0423082D01*
X0422557D01*
Y0556134D01*
X0422033Y0555609D01*
X0434856Y0517394D02*
Y0514770D01*
X0435381Y0514245D01*
X0436430D01*
X0436955Y0514770D01*
Y0517394D01*
X0440104Y0514245D02*
X0438004D01*
X0440104Y0516344D01*
Y0516869D01*
X0439579Y0517394D01*
X0438529D01*
X0438004Y0516869D01*
X0443252Y0514245D02*
X0441153D01*
X0443252Y0516344D01*
Y0516869D01*
X0442727Y0517394D01*
X0441678D01*
X0441153Y0516869D01*
X0407441Y0494992D02*
Y0492368D01*
X0407966Y0491843D01*
X0409015D01*
X0409540Y0492368D01*
Y0494992D01*
X0410590Y0491843D02*
X0411639D01*
X0411115D01*
Y0494992D01*
X0410590Y0494467D01*
X0413214Y0492368D02*
X0413738Y0491843D01*
X0414788D01*
X0415313Y0492368D01*
Y0494467D01*
X0414788Y0494992D01*
X0413738D01*
X0413214Y0494467D01*
Y0493942D01*
X0413738Y0493418D01*
X0415313D01*
X0417716Y0399718D02*
X0420340D01*
X0420864Y0400243D01*
Y0401293D01*
X0420340Y0401817D01*
X0417716D01*
X0420864Y0402867D02*
Y0403916D01*
Y0403392D01*
X0417716D01*
X0418241Y0402867D01*
Y0405491D02*
X0417716Y0406015D01*
Y0407065D01*
X0418241Y0407590D01*
X0418765D01*
X0419290Y0407065D01*
X0419815Y0407590D01*
X0420340D01*
X0420864Y0407065D01*
Y0406015D01*
X0420340Y0405491D01*
X0419815D01*
X0419290Y0406015D01*
X0418765Y0405491D01*
X0418241D01*
X0419290Y0406015D02*
Y0407065D01*
X0552322Y0647553D02*
X0554946D01*
X0555471Y0648078D01*
Y0649127D01*
X0554946Y0649652D01*
X0552322D01*
X0555471Y0650701D02*
Y0651751D01*
Y0651226D01*
X0552322D01*
X0552847Y0650701D01*
X0552322Y0653325D02*
Y0655424D01*
X0552847D01*
X0554946Y0653325D01*
X0555471D01*
X0378267Y0591254D02*
X0380891D01*
X0381416Y0591778D01*
Y0592828D01*
X0380891Y0593353D01*
X0378267D01*
X0381416Y0594402D02*
Y0595452D01*
Y0594927D01*
X0378267D01*
X0378792Y0594402D01*
X0378267Y0599125D02*
Y0597026D01*
X0379841D01*
X0379317Y0598076D01*
Y0598600D01*
X0379841Y0599125D01*
X0380891D01*
X0381416Y0598600D01*
Y0597551D01*
X0380891Y0597026D01*
X0370117Y0487710D02*
X0372741D01*
X0373266Y0488235D01*
Y0489285D01*
X0372741Y0489809D01*
X0370117D01*
X0373266Y0490859D02*
Y0491909D01*
Y0491384D01*
X0370117D01*
X0370642Y0490859D01*
Y0493483D02*
X0370117Y0494007D01*
Y0495057D01*
X0370642Y0495582D01*
X0371167D01*
X0371692Y0495057D01*
Y0494532D01*
Y0495057D01*
X0372217Y0495582D01*
X0372741D01*
X0373266Y0495057D01*
Y0494007D01*
X0372741Y0493483D01*
X0466863Y0521173D02*
Y0518549D01*
X0467388Y0518024D01*
X0468438D01*
X0468963Y0518549D01*
Y0521173D01*
X0470012Y0518024D02*
X0471062D01*
X0470537D01*
Y0521173D01*
X0470012Y0520648D01*
X0472636Y0518024D02*
X0473686D01*
X0473161D01*
Y0521173D01*
X0472636Y0520648D01*
X0527966Y0437827D02*
Y0435203D01*
X0528490Y0434678D01*
X0529540D01*
X0530065Y0435203D01*
Y0437827D01*
X0531114Y0435203D02*
X0531639Y0434678D01*
X0532689D01*
X0533213Y0435203D01*
Y0437302D01*
X0532689Y0437827D01*
X0531639D01*
X0531114Y0437302D01*
Y0436777D01*
X0531639Y0436252D01*
X0533213D01*
X0539369Y0673117D02*
X0541993D01*
X0542518Y0673641D01*
Y0674691D01*
X0541993Y0675216D01*
X0539369D01*
X0539894Y0676265D02*
X0539369Y0676790D01*
Y0677840D01*
X0539894Y0678364D01*
X0540419D01*
X0540944Y0677840D01*
X0541469Y0678364D01*
X0541993D01*
X0542518Y0677840D01*
Y0676790D01*
X0541993Y0676265D01*
X0541469D01*
X0540944Y0676790D01*
X0540419Y0676265D01*
X0539894D01*
X0540944Y0676790D02*
Y0677840D01*
X0496351Y0493023D02*
Y0490400D01*
X0496876Y0489875D01*
X0497926D01*
X0498451Y0490400D01*
Y0493023D01*
X0499500D02*
X0501599D01*
Y0492499D01*
X0499500Y0490400D01*
Y0489875D01*
X0545407Y0601646D02*
Y0599022D01*
X0545931Y0598497D01*
X0546981D01*
X0547506Y0599022D01*
Y0601646D01*
X0550654D02*
X0549605Y0601121D01*
X0548555Y0600071D01*
Y0599022D01*
X0549080Y0598497D01*
X0550130D01*
X0550654Y0599022D01*
Y0599546D01*
X0550130Y0600071D01*
X0548555D01*
X0423399Y0635779D02*
Y0633156D01*
X0423923Y0632631D01*
X0424973D01*
X0425498Y0633156D01*
Y0635779D01*
X0428646Y0632631D02*
X0426547D01*
X0428646Y0634730D01*
Y0635255D01*
X0428122Y0635779D01*
X0427072D01*
X0426547Y0635255D01*
X0543950Y0624126D02*
X0546049D01*
X0544999D01*
Y0620977D01*
X0549197Y0624126D02*
X0547098D01*
Y0622552D01*
X0548148Y0623076D01*
X0548673D01*
X0549197Y0622552D01*
Y0621502D01*
X0548673Y0620977D01*
X0547623D01*
X0547098Y0621502D01*
X0519226Y0663102D02*
X0521325D01*
X0520275D01*
Y0659954D01*
X0523948D02*
Y0663102D01*
X0522374Y0661528D01*
X0524473D01*
X0519186Y0671173D02*
X0521285D01*
X0520236D01*
Y0668024D01*
X0522335Y0670648D02*
X0522859Y0671173D01*
X0523909D01*
X0524434Y0670648D01*
Y0670124D01*
X0523909Y0669599D01*
X0523384D01*
X0523909D01*
X0524434Y0669074D01*
Y0668549D01*
X0523909Y0668024D01*
X0522859D01*
X0522335Y0668549D01*
X0472414Y0474992D02*
X0474513D01*
X0473464D01*
Y0471843D01*
X0477662D02*
X0475563D01*
X0477662Y0473943D01*
Y0474467D01*
X0477137Y0474992D01*
X0476088D01*
X0475563Y0474467D01*
X0518215Y0543653D02*
X0520314D01*
X0519264D01*
Y0540505D01*
X0521363D02*
X0522413D01*
X0521888D01*
Y0543653D01*
X0521363Y0543129D01*
X0410722Y0497316D02*
Y0500464D01*
X0412296D01*
X0412821Y0499940D01*
Y0498890D01*
X0412296Y0498365D01*
X0410722D01*
X0411772D02*
X0412821Y0497316D01*
X0415445D02*
Y0500464D01*
X0413871Y0498890D01*
X0415970D01*
X0417019Y0497841D02*
X0417544Y0497316D01*
X0418594D01*
X0419118Y0497841D01*
Y0499940D01*
X0418594Y0500464D01*
X0417544D01*
X0417019Y0499940D01*
Y0499415D01*
X0417544Y0498890D01*
X0419118D01*
X0386667Y0519521D02*
Y0522669D01*
X0388241D01*
X0388766Y0522144D01*
Y0521095D01*
X0388241Y0520570D01*
X0386667D01*
X0387717D02*
X0388766Y0519521D01*
X0391390D02*
Y0522669D01*
X0389815Y0521095D01*
X0391915D01*
X0392964Y0522144D02*
X0393489Y0522669D01*
X0394538D01*
X0395063Y0522144D01*
Y0521620D01*
X0394538Y0521095D01*
X0395063Y0520570D01*
Y0520045D01*
X0394538Y0519521D01*
X0393489D01*
X0392964Y0520045D01*
Y0520570D01*
X0393489Y0521095D01*
X0392964Y0521620D01*
Y0522144D01*
X0393489Y0521095D02*
X0394538D01*
X0460628Y0410519D02*
X0457480D01*
Y0412093D01*
X0458005Y0412618D01*
X0459054D01*
X0459579Y0412093D01*
Y0410519D01*
Y0411568D02*
X0460628Y0412618D01*
Y0415242D02*
X0457480D01*
X0459054Y0413667D01*
Y0415766D01*
X0457480Y0418915D02*
Y0416816D01*
X0459054D01*
X0458529Y0417866D01*
Y0418390D01*
X0459054Y0418915D01*
X0460104D01*
X0460628Y0418390D01*
Y0417341D01*
X0460104Y0416816D01*
X0556824Y0608379D02*
Y0611527D01*
X0558399D01*
X0558923Y0611003D01*
Y0609953D01*
X0558399Y0609428D01*
X0556824D01*
X0557874D02*
X0558923Y0608379D01*
X0561547D02*
Y0611527D01*
X0559973Y0609953D01*
X0562072D01*
X0564696Y0608379D02*
Y0611527D01*
X0563122Y0609953D01*
X0565221D01*
X0545604Y0602670D02*
Y0605819D01*
X0547178D01*
X0547703Y0605294D01*
Y0604245D01*
X0547178Y0603720D01*
X0545604D01*
X0546654D02*
X0547703Y0602670D01*
X0550327D02*
Y0605819D01*
X0548752Y0604245D01*
X0550852D01*
X0554000Y0602670D02*
X0551901D01*
X0554000Y0604769D01*
Y0605294D01*
X0553475Y0605819D01*
X0552426D01*
X0551901Y0605294D01*
X0552822Y0615899D02*
Y0619047D01*
X0554396D01*
X0554921Y0618522D01*
Y0617473D01*
X0554396Y0616948D01*
X0552822D01*
X0553871D02*
X0554921Y0615899D01*
X0557545D02*
Y0619047D01*
X0555970Y0617473D01*
X0558069D01*
X0559119Y0615899D02*
X0560168D01*
X0559644D01*
Y0619047D01*
X0559119Y0618522D01*
X0434447Y0418039D02*
X0431299D01*
Y0419613D01*
X0431823Y0420138D01*
X0432873D01*
X0433398Y0419613D01*
Y0418039D01*
Y0419088D02*
X0434447Y0420138D01*
X0431823Y0421187D02*
X0431299Y0421712D01*
Y0422761D01*
X0431823Y0423286D01*
X0432348D01*
X0432873Y0422761D01*
Y0422237D01*
Y0422761D01*
X0433398Y0423286D01*
X0433922D01*
X0434447Y0422761D01*
Y0421712D01*
X0433922Y0421187D01*
Y0424336D02*
X0434447Y0424860D01*
Y0425910D01*
X0433922Y0426435D01*
X0431823D01*
X0431299Y0425910D01*
Y0424860D01*
X0431823Y0424336D01*
X0432348D01*
X0432873Y0424860D01*
Y0426435D01*
X0534580Y0626410D02*
Y0629559D01*
X0536155D01*
X0536679Y0629034D01*
Y0627985D01*
X0536155Y0627460D01*
X0534580D01*
X0535630D02*
X0536679Y0626410D01*
X0537729Y0629034D02*
X0538254Y0629559D01*
X0539303D01*
X0539828Y0629034D01*
Y0628509D01*
X0539303Y0627985D01*
X0538778D01*
X0539303D01*
X0539828Y0627460D01*
Y0626935D01*
X0539303Y0626410D01*
X0538254D01*
X0537729Y0626935D01*
X0540877Y0629034D02*
X0541402Y0629559D01*
X0542452D01*
X0542977Y0629034D01*
Y0628509D01*
X0542452Y0627985D01*
X0542977Y0627460D01*
Y0626935D01*
X0542452Y0626410D01*
X0541402D01*
X0540877Y0626935D01*
Y0627460D01*
X0541402Y0627985D01*
X0540877Y0628509D01*
Y0629034D01*
X0541402Y0627985D02*
X0542452D01*
X0426337Y0418078D02*
X0423188D01*
Y0419652D01*
X0423713Y0420177D01*
X0424763D01*
X0425287Y0419652D01*
Y0418078D01*
Y0419127D02*
X0426337Y0420177D01*
X0423713Y0421227D02*
X0423188Y0421751D01*
Y0422801D01*
X0423713Y0423325D01*
X0424238D01*
X0424763Y0422801D01*
Y0422276D01*
Y0422801D01*
X0425287Y0423325D01*
X0425812D01*
X0426337Y0422801D01*
Y0421751D01*
X0425812Y0421227D01*
X0423188Y0426474D02*
X0423713Y0425425D01*
X0424763Y0424375D01*
X0425812D01*
X0426337Y0424900D01*
Y0425949D01*
X0425812Y0426474D01*
X0425287D01*
X0424763Y0425949D01*
Y0424375D01*
X0523360Y0544009D02*
Y0547157D01*
X0524934D01*
X0525459Y0546633D01*
Y0545583D01*
X0524934Y0545058D01*
X0523360D01*
X0524409D02*
X0525459Y0544009D01*
X0526508Y0546633D02*
X0527033Y0547157D01*
X0528083D01*
X0528608Y0546633D01*
Y0546108D01*
X0528083Y0545583D01*
X0527558D01*
X0528083D01*
X0528608Y0545058D01*
Y0544534D01*
X0528083Y0544009D01*
X0527033D01*
X0526508Y0544534D01*
X0531756Y0547157D02*
X0529657D01*
Y0545583D01*
X0530707Y0546108D01*
X0531231D01*
X0531756Y0545583D01*
Y0544534D01*
X0531231Y0544009D01*
X0530182D01*
X0529657Y0544534D01*
X0448714Y0517434D02*
Y0520583D01*
X0450288D01*
X0450813Y0520058D01*
Y0519008D01*
X0450288Y0518483D01*
X0448714D01*
X0449764D02*
X0450813Y0517434D01*
X0451863Y0520058D02*
X0452388Y0520583D01*
X0453437D01*
X0453962Y0520058D01*
Y0519533D01*
X0453437Y0519008D01*
X0452912D01*
X0453437D01*
X0453962Y0518483D01*
Y0517959D01*
X0453437Y0517434D01*
X0452388D01*
X0451863Y0517959D01*
X0456586Y0517434D02*
Y0520583D01*
X0455011Y0519008D01*
X0457110D01*
X0558163Y0657040D02*
Y0660189D01*
X0559737D01*
X0560262Y0659664D01*
Y0658615D01*
X0559737Y0658090D01*
X0558163D01*
X0559212D02*
X0560262Y0657040D01*
X0563411D02*
X0561312D01*
X0563411Y0659139D01*
Y0659664D01*
X0562886Y0660189D01*
X0561836D01*
X0561312Y0659664D01*
X0566559Y0660189D02*
X0564460D01*
Y0658615D01*
X0565510Y0659139D01*
X0566035D01*
X0566559Y0658615D01*
Y0657565D01*
X0566035Y0657040D01*
X0564985D01*
X0564460Y0657565D01*
X0508439Y0449048D02*
Y0452197D01*
X0510013D01*
X0510538Y0451672D01*
Y0450623D01*
X0510013Y0450098D01*
X0508439D01*
X0509488D02*
X0510538Y0449048D01*
X0513686D02*
X0511587D01*
X0513686Y0451147D01*
Y0451672D01*
X0513162Y0452197D01*
X0512112D01*
X0511587Y0451672D01*
X0516310Y0449048D02*
Y0452197D01*
X0514736Y0450623D01*
X0516835D01*
X0547124Y0677015D02*
X0543976D01*
Y0678589D01*
X0544501Y0679114D01*
X0545550D01*
X0546075Y0678589D01*
Y0677015D01*
Y0678064D02*
X0547124Y0679114D01*
Y0682263D02*
Y0680163D01*
X0545025Y0682263D01*
X0544501D01*
X0543976Y0681738D01*
Y0680688D01*
X0544501Y0680163D01*
Y0683312D02*
X0543976Y0683837D01*
Y0684886D01*
X0544501Y0685411D01*
X0545025D01*
X0545550Y0684886D01*
Y0684362D01*
Y0684886D01*
X0546075Y0685411D01*
X0546600D01*
X0547124Y0684886D01*
Y0683837D01*
X0546600Y0683312D01*
X0526628Y0425465D02*
Y0428614D01*
X0528202D01*
X0528727Y0428089D01*
Y0427040D01*
X0528202Y0426515D01*
X0526628D01*
X0527677D02*
X0528727Y0425465D01*
X0531875D02*
X0529776D01*
X0531875Y0427564D01*
Y0428089D01*
X0531351Y0428614D01*
X0530301D01*
X0529776Y0428089D01*
X0535024Y0425465D02*
X0532925D01*
X0535024Y0427564D01*
Y0428089D01*
X0534499Y0428614D01*
X0533450D01*
X0532925Y0428089D01*
X0552507Y0668418D02*
Y0671567D01*
X0554081D01*
X0554606Y0671042D01*
Y0669992D01*
X0554081Y0669468D01*
X0552507D01*
X0553556D02*
X0554606Y0668418D01*
X0557754D02*
X0555655D01*
X0557754Y0670517D01*
Y0671042D01*
X0557230Y0671567D01*
X0556180D01*
X0555655Y0671042D01*
X0558804Y0668418D02*
X0559853D01*
X0559329D01*
Y0671567D01*
X0558804Y0671042D01*
X0482258Y0497040D02*
Y0500189D01*
X0483832D01*
X0484356Y0499664D01*
Y0498615D01*
X0483832Y0498090D01*
X0482258D01*
X0483307D02*
X0484356Y0497040D01*
X0487505D02*
X0485406D01*
X0487505Y0499139D01*
Y0499664D01*
X0486980Y0500189D01*
X0485931D01*
X0485406Y0499664D01*
X0488555D02*
X0489079Y0500189D01*
X0490129D01*
X0490654Y0499664D01*
Y0497565D01*
X0490129Y0497040D01*
X0489079D01*
X0488555Y0497565D01*
Y0499664D01*
X0445276Y0452906D02*
Y0456055D01*
X0446850D01*
X0447375Y0455530D01*
Y0454481D01*
X0446850Y0453956D01*
X0445276D01*
X0446325D02*
X0447375Y0452906D01*
X0448424D02*
X0449474D01*
X0448949D01*
Y0456055D01*
X0448424Y0455530D01*
X0451048Y0453431D02*
X0451573Y0452906D01*
X0452623D01*
X0453147Y0453431D01*
Y0455530D01*
X0452623Y0456055D01*
X0451573D01*
X0451048Y0455530D01*
Y0455006D01*
X0451573Y0454481D01*
X0453147D01*
X0482244Y0501292D02*
Y0504441D01*
X0483819D01*
X0484343Y0503916D01*
Y0502867D01*
X0483819Y0502342D01*
X0482244D01*
X0483294D02*
X0484343Y0501292D01*
X0485393D02*
X0486442D01*
X0485918D01*
Y0504441D01*
X0485393Y0503916D01*
X0488017D02*
X0488542Y0504441D01*
X0489591D01*
X0490116Y0503916D01*
Y0503391D01*
X0489591Y0502867D01*
X0490116Y0502342D01*
Y0501817D01*
X0489591Y0501292D01*
X0488542D01*
X0488017Y0501817D01*
Y0502342D01*
X0488542Y0502867D01*
X0488017Y0503391D01*
Y0503916D01*
X0488542Y0502867D02*
X0489591D01*
X0500473Y0456056D02*
Y0459205D01*
X0502047D01*
X0502572Y0458680D01*
Y0457630D01*
X0502047Y0457106D01*
X0500473D01*
X0501522D02*
X0502572Y0456056D01*
X0503621D02*
X0504671D01*
X0504146D01*
Y0459205D01*
X0503621Y0458680D01*
X0506245Y0459205D02*
X0508344D01*
Y0458680D01*
X0506245Y0456581D01*
Y0456056D01*
X0453425Y0457670D02*
Y0460819D01*
X0455000D01*
X0455524Y0460294D01*
Y0459244D01*
X0455000Y0458720D01*
X0453425D01*
X0454475D02*
X0455524Y0457670D01*
X0456574D02*
X0457623D01*
X0457099D01*
Y0460819D01*
X0456574Y0460294D01*
X0461297Y0460819D02*
X0460247Y0460294D01*
X0459198Y0459244D01*
Y0458195D01*
X0459723Y0457670D01*
X0460772D01*
X0461297Y0458195D01*
Y0458720D01*
X0460772Y0459244D01*
X0459198D01*
X0527244Y0455151D02*
Y0458299D01*
X0528819D01*
X0529343Y0457774D01*
Y0456725D01*
X0528819Y0456200D01*
X0527244D01*
X0528294D02*
X0529343Y0455151D01*
X0530393D02*
X0531442D01*
X0530918D01*
Y0458299D01*
X0530393Y0457774D01*
X0535116Y0458299D02*
X0533017D01*
Y0456725D01*
X0534066Y0457250D01*
X0534591D01*
X0535116Y0456725D01*
Y0455675D01*
X0534591Y0455151D01*
X0533541D01*
X0533017Y0455675D01*
X0478740Y0467276D02*
Y0470425D01*
X0480315D01*
X0480839Y0469900D01*
Y0468851D01*
X0480315Y0468326D01*
X0478740D01*
X0479790D02*
X0480839Y0467276D01*
X0481889D02*
X0482938D01*
X0482414D01*
Y0470425D01*
X0481889Y0469900D01*
X0486087Y0467276D02*
Y0470425D01*
X0484513Y0468851D01*
X0486612D01*
X0520825Y0514679D02*
X0517677D01*
Y0516253D01*
X0518201Y0516778D01*
X0519251D01*
X0519776Y0516253D01*
Y0514679D01*
Y0515728D02*
X0520825Y0516778D01*
Y0517827D02*
Y0518877D01*
Y0518352D01*
X0517677D01*
X0518201Y0517827D01*
Y0520451D02*
X0517677Y0520976D01*
Y0522026D01*
X0518201Y0522550D01*
X0518726D01*
X0519251Y0522026D01*
Y0521501D01*
Y0522026D01*
X0519776Y0522550D01*
X0520300D01*
X0520825Y0522026D01*
Y0520976D01*
X0520300Y0520451D01*
X0541337Y0531805D02*
X0538188D01*
Y0533379D01*
X0538713Y0533904D01*
X0539763D01*
X0540287Y0533379D01*
Y0531805D01*
Y0532854D02*
X0541337Y0533904D01*
Y0534953D02*
Y0536003D01*
Y0535478D01*
X0538188D01*
X0538713Y0534953D01*
X0541337Y0539676D02*
Y0537577D01*
X0539238Y0539676D01*
X0538713D01*
X0538188Y0539151D01*
Y0538102D01*
X0538713Y0537577D01*
X0536352Y0602592D02*
Y0605740D01*
X0537926D01*
X0538451Y0605215D01*
Y0604166D01*
X0537926Y0603641D01*
X0536352D01*
X0537401D02*
X0538451Y0602592D01*
X0539500D02*
X0540550D01*
X0540025D01*
Y0605740D01*
X0539500Y0605215D01*
X0542124Y0602592D02*
X0543174D01*
X0542649D01*
Y0605740D01*
X0542124Y0605215D01*
X0451312Y0506489D02*
Y0509638D01*
X0452886D01*
X0453411Y0509113D01*
Y0508063D01*
X0452886Y0507539D01*
X0451312D01*
X0452362D02*
X0453411Y0506489D01*
X0454461Y0507014D02*
X0454986Y0506489D01*
X0456035D01*
X0456560Y0507014D01*
Y0509113D01*
X0456035Y0509638D01*
X0454986D01*
X0454461Y0509113D01*
Y0508588D01*
X0454986Y0508063D01*
X0456560D01*
X0536967Y0520361D02*
X0533818D01*
Y0521935D01*
X0534343Y0522460D01*
X0535393D01*
X0535917Y0521935D01*
Y0520361D01*
Y0521410D02*
X0536967Y0522460D01*
X0533818Y0523509D02*
Y0525608D01*
X0534343D01*
X0536442Y0523509D01*
X0536967D01*
X0425367Y0503103D02*
Y0506252D01*
X0426941D01*
X0427466Y0505727D01*
Y0504678D01*
X0426941Y0504153D01*
X0425367D01*
X0426417D02*
X0427466Y0503103D01*
X0430615Y0506252D02*
X0429565Y0505727D01*
X0428516Y0504678D01*
Y0503628D01*
X0429041Y0503103D01*
X0430090D01*
X0430615Y0503628D01*
Y0504153D01*
X0430090Y0504678D01*
X0428516D01*
X0386613Y0610833D02*
X0383464D01*
Y0612408D01*
X0383989Y0612932D01*
X0385038D01*
X0385563Y0612408D01*
Y0610833D01*
Y0611883D02*
X0386613Y0612932D01*
X0383464Y0616081D02*
Y0613982D01*
X0385038D01*
X0384513Y0615031D01*
Y0615556D01*
X0385038Y0616081D01*
X0386088D01*
X0386613Y0615556D01*
Y0614507D01*
X0386088Y0613982D01*
X0439802Y0521621D02*
X0436653D01*
Y0523195D01*
X0437178Y0523720D01*
X0438227D01*
X0438752Y0523195D01*
Y0521621D01*
Y0522670D02*
X0439802Y0523720D01*
Y0526344D02*
X0436653D01*
X0438227Y0524769D01*
Y0526868D01*
X0382046Y0607644D02*
X0378897D01*
Y0609219D01*
X0379422Y0609743D01*
X0380471D01*
X0380996Y0609219D01*
Y0607644D01*
Y0608694D02*
X0382046Y0609743D01*
X0379422Y0610793D02*
X0378897Y0611318D01*
Y0612367D01*
X0379422Y0612892D01*
X0379947D01*
X0380471Y0612367D01*
Y0611842D01*
Y0612367D01*
X0380996Y0612892D01*
X0381521D01*
X0382046Y0612367D01*
Y0611318D01*
X0381521Y0610793D01*
X0374344Y0449993D02*
Y0453142D01*
X0375918D01*
X0376443Y0452617D01*
Y0451567D01*
X0375918Y0451043D01*
X0374344D01*
X0379591Y0453142D02*
X0377492D01*
Y0451567D01*
X0378542Y0452092D01*
X0379066D01*
X0379591Y0451567D01*
Y0450518D01*
X0379066Y0449993D01*
X0378017D01*
X0377492Y0450518D01*
X0566037Y0449087D02*
Y0452236D01*
X0567611D01*
X0568136Y0451711D01*
Y0450662D01*
X0567611Y0450137D01*
X0566037D01*
X0570759Y0449087D02*
Y0452236D01*
X0569185Y0450662D01*
X0571284D01*
X0443884Y0491292D02*
Y0494441D01*
X0445458D01*
X0445983Y0493916D01*
Y0492867D01*
X0445458Y0492342D01*
X0443884D01*
X0447033Y0491292D02*
X0448082D01*
X0447557D01*
Y0494441D01*
X0447033Y0493916D01*
X0531495Y0486710D02*
X0528346D01*
Y0484611D01*
Y0481463D02*
Y0483562D01*
X0530445Y0481463D01*
X0530970D01*
X0531495Y0481987D01*
Y0483037D01*
X0530970Y0483562D01*
X0528346Y0478839D02*
X0531495D01*
X0529920Y0480413D01*
Y0478314D01*
X0561313Y0594559D02*
Y0591410D01*
X0563412D01*
X0566560D02*
X0564461D01*
X0566560Y0593509D01*
Y0594034D01*
X0566036Y0594559D01*
X0564986D01*
X0564461Y0594034D01*
X0567610D02*
X0568135Y0594559D01*
X0569184D01*
X0569709Y0594034D01*
Y0593509D01*
X0569184Y0592985D01*
X0568659D01*
X0569184D01*
X0569709Y0592460D01*
Y0591935D01*
X0569184Y0591410D01*
X0568135D01*
X0567610Y0591935D01*
X0409108Y0510071D02*
Y0506922D01*
X0411207D01*
X0414356D02*
X0412256D01*
X0414356Y0509021D01*
Y0509546D01*
X0413831Y0510071D01*
X0412781D01*
X0412256Y0509546D01*
X0417504Y0506922D02*
X0415405D01*
X0417504Y0509021D01*
Y0509546D01*
X0416979Y0510071D01*
X0415930D01*
X0415405Y0509546D01*
X0510905Y0658852D02*
X0514053D01*
Y0660951D01*
Y0662001D02*
Y0663050D01*
Y0662525D01*
X0510905D01*
X0511430Y0662001D01*
X0513529Y0664625D02*
X0514053Y0665149D01*
Y0666199D01*
X0513529Y0666724D01*
X0511430D01*
X0510905Y0666199D01*
Y0665149D01*
X0511430Y0664625D01*
X0511954D01*
X0512479Y0665149D01*
Y0666724D01*
X0484763Y0667277D02*
X0487912D01*
Y0669376D01*
Y0670426D02*
Y0671475D01*
Y0670951D01*
X0484763D01*
X0485288Y0670426D01*
Y0673050D02*
X0484763Y0673574D01*
Y0674624D01*
X0485288Y0675149D01*
X0485813D01*
X0486338Y0674624D01*
X0486862Y0675149D01*
X0487387D01*
X0487912Y0674624D01*
Y0673574D01*
X0487387Y0673050D01*
X0486862D01*
X0486338Y0673574D01*
X0485813Y0673050D01*
X0485288D01*
X0486338Y0673574D02*
Y0674624D01*
X0504842Y0665348D02*
X0507991D01*
Y0667447D01*
Y0668497D02*
Y0669546D01*
Y0669022D01*
X0504842D01*
X0505367Y0668497D01*
X0504842Y0671121D02*
Y0673220D01*
X0505367D01*
X0507466Y0671121D01*
X0507991D01*
X0406391Y0585031D02*
Y0581883D01*
X0408490D01*
X0411638D02*
X0409539D01*
X0411638Y0583982D01*
Y0584507D01*
X0411114Y0585031D01*
X0410064D01*
X0409539Y0584507D01*
X0427979Y0554953D02*
Y0551804D01*
X0430078D01*
X0431127D02*
X0432177D01*
X0431652D01*
Y0554953D01*
X0431127Y0554428D01*
X0477479Y0669205D02*
X0476430D01*
X0476955D01*
Y0666581D01*
X0476430Y0666056D01*
X0475905D01*
X0475380Y0666581D01*
X0478529Y0666056D02*
X0479578D01*
X0479053D01*
Y0669205D01*
X0478529Y0668680D01*
X0437361Y0426213D02*
X0435262D01*
Y0424638D01*
X0436312D01*
X0435262D01*
Y0423064D01*
X0438411D02*
X0439460D01*
X0438935D01*
Y0426213D01*
X0438411Y0425688D01*
X0501955Y0681213D02*
Y0678064D01*
X0503529D01*
X0504054Y0678589D01*
Y0680688D01*
X0503529Y0681213D01*
X0501955D01*
X0505104Y0678064D02*
X0506153D01*
X0505628D01*
Y0681213D01*
X0505104Y0680688D01*
X0388950Y0654953D02*
Y0651804D01*
X0390524D01*
X0391049Y0652329D01*
Y0654428D01*
X0390524Y0654953D01*
X0388950D01*
X0394198D02*
X0393148Y0654428D01*
X0392098Y0653378D01*
Y0652329D01*
X0392623Y0651804D01*
X0393673D01*
X0394198Y0652329D01*
Y0652854D01*
X0393673Y0653378D01*
X0392098D01*
X0413517Y0479441D02*
Y0476292D01*
X0415091D01*
X0415616Y0476817D01*
Y0478916D01*
X0415091Y0479441D01*
X0413517D01*
X0418240Y0476292D02*
Y0479441D01*
X0416665Y0477867D01*
X0418764D01*
X0449226Y0480346D02*
Y0477198D01*
X0450800D01*
X0451325Y0477723D01*
Y0479822D01*
X0450800Y0480346D01*
X0449226D01*
X0454473Y0477198D02*
X0452374D01*
X0454473Y0479297D01*
Y0479822D01*
X0453948Y0480346D01*
X0452899D01*
X0452374Y0479822D01*
X0453806Y0657538D02*
X0453281Y0658063D01*
X0452232D01*
X0451707Y0657538D01*
Y0655439D01*
X0452232Y0654914D01*
X0453281D01*
X0453806Y0655439D01*
X0456430Y0658063D02*
X0455380D01*
X0454855Y0657538D01*
Y0655439D01*
X0455380Y0654914D01*
X0456430D01*
X0456954Y0655439D01*
Y0657538D01*
X0456430Y0658063D01*
X0458004Y0654914D02*
Y0658063D01*
X0460103Y0654914D01*
Y0658063D01*
X0462727Y0654914D02*
Y0658063D01*
X0461153Y0656489D01*
X0463252D01*
X0385394Y0662144D02*
X0384869Y0662669D01*
X0383819D01*
X0383295Y0662144D01*
Y0660045D01*
X0383819Y0659521D01*
X0384869D01*
X0385394Y0660045D01*
X0388018Y0662669D02*
X0386968D01*
X0386443Y0662144D01*
Y0660045D01*
X0386968Y0659521D01*
X0388018D01*
X0388542Y0660045D01*
Y0662144D01*
X0388018Y0662669D01*
X0389592Y0659521D02*
Y0662669D01*
X0391691Y0659521D01*
Y0662669D01*
X0392740Y0659521D02*
X0393790D01*
X0393265D01*
Y0662669D01*
X0392740Y0662144D01*
X0394894Y0594035D02*
X0394370Y0593510D01*
Y0592461D01*
X0394894Y0591936D01*
X0396993D01*
X0397518Y0592461D01*
Y0593510D01*
X0396993Y0594035D01*
Y0595085D02*
X0397518Y0595610D01*
Y0596659D01*
X0396993Y0597184D01*
X0394894D01*
X0394370Y0596659D01*
Y0595610D01*
X0394894Y0595085D01*
X0395419D01*
X0395944Y0595610D01*
Y0597184D01*
X0397518Y0599808D02*
X0394370D01*
X0395944Y0598233D01*
Y0600332D01*
X0393320Y0605767D02*
X0392795Y0605243D01*
Y0604193D01*
X0393320Y0603668D01*
X0395419D01*
X0395943Y0604193D01*
Y0605243D01*
X0395419Y0605767D01*
Y0606817D02*
X0395943Y0607342D01*
Y0608391D01*
X0395419Y0608916D01*
X0393320D01*
X0392795Y0608391D01*
Y0607342D01*
X0393320Y0606817D01*
X0393844D01*
X0394369Y0607342D01*
Y0608916D01*
X0393320Y0609966D02*
X0392795Y0610490D01*
Y0611540D01*
X0393320Y0612065D01*
X0393844D01*
X0394369Y0611540D01*
Y0611015D01*
Y0611540D01*
X0394894Y0612065D01*
X0395419D01*
X0395943Y0611540D01*
Y0610490D01*
X0395419Y0609966D01*
X0388267Y0585097D02*
X0387742Y0585622D01*
X0386693D01*
X0386168Y0585097D01*
Y0582998D01*
X0386693Y0582473D01*
X0387742D01*
X0388267Y0582998D01*
X0389317D02*
X0389841Y0582473D01*
X0390891D01*
X0391416Y0582998D01*
Y0585097D01*
X0390891Y0585622D01*
X0389841D01*
X0389317Y0585097D01*
Y0584572D01*
X0389841Y0584048D01*
X0391416D01*
X0392465Y0582473D02*
X0393515D01*
X0392990D01*
Y0585622D01*
X0392465Y0585097D01*
X0402571Y0583799D02*
X0402047Y0583274D01*
Y0582225D01*
X0402571Y0581700D01*
X0404670D01*
X0405195Y0582225D01*
Y0583274D01*
X0404670Y0583799D01*
Y0584848D02*
X0405195Y0585373D01*
Y0586423D01*
X0404670Y0586948D01*
X0402571D01*
X0402047Y0586423D01*
Y0585373D01*
X0402571Y0584848D01*
X0403096D01*
X0403621Y0585373D01*
Y0586948D01*
X0402571Y0587997D02*
X0402047Y0588522D01*
Y0589571D01*
X0402571Y0590096D01*
X0404670D01*
X0405195Y0589571D01*
Y0588522D01*
X0404670Y0587997D01*
X0402571D01*
X0382453Y0514665D02*
X0381928Y0514140D01*
Y0513091D01*
X0382453Y0512566D01*
X0384552D01*
X0385077Y0513091D01*
Y0514140D01*
X0384552Y0514665D01*
X0382453Y0515715D02*
X0381928Y0516239D01*
Y0517289D01*
X0382453Y0517814D01*
X0382978D01*
X0383503Y0517289D01*
X0384028Y0517814D01*
X0384552D01*
X0385077Y0517289D01*
Y0516239D01*
X0384552Y0515715D01*
X0384028D01*
X0383503Y0516239D01*
X0382978Y0515715D01*
X0382453D01*
X0383503Y0516239D02*
Y0517289D01*
X0382453Y0518863D02*
X0381928Y0519388D01*
Y0520438D01*
X0382453Y0520962D01*
X0382978D01*
X0383503Y0520438D01*
X0384028Y0520962D01*
X0384552D01*
X0385077Y0520438D01*
Y0519388D01*
X0384552Y0518863D01*
X0384028D01*
X0383503Y0519388D01*
X0382978Y0518863D01*
X0382453D01*
X0383503Y0519388D02*
Y0520438D01*
X0427690Y0420256D02*
X0427165Y0419731D01*
Y0418681D01*
X0427690Y0418157D01*
X0429789D01*
X0430313Y0418681D01*
Y0419731D01*
X0429789Y0420256D01*
X0427690Y0421305D02*
X0427165Y0421830D01*
Y0422880D01*
X0427690Y0423404D01*
X0428214D01*
X0428739Y0422880D01*
X0429264Y0423404D01*
X0429789D01*
X0430313Y0422880D01*
Y0421830D01*
X0429789Y0421305D01*
X0429264D01*
X0428739Y0421830D01*
X0428214Y0421305D01*
X0427690D01*
X0428739Y0421830D02*
Y0422880D01*
X0427165Y0424454D02*
Y0426553D01*
X0427690D01*
X0429789Y0424454D01*
X0430313D01*
X0489264Y0510374D02*
X0488740Y0509849D01*
Y0508800D01*
X0489264Y0508275D01*
X0491363D01*
X0491888Y0508800D01*
Y0509849D01*
X0491363Y0510374D01*
X0489264Y0511423D02*
X0488740Y0511948D01*
Y0512998D01*
X0489264Y0513522D01*
X0489789D01*
X0490314Y0512998D01*
X0490839Y0513522D01*
X0491363D01*
X0491888Y0512998D01*
Y0511948D01*
X0491363Y0511423D01*
X0490839D01*
X0490314Y0511948D01*
X0489789Y0511423D01*
X0489264D01*
X0490314Y0511948D02*
Y0512998D01*
X0491888Y0516146D02*
X0488740D01*
X0490314Y0514572D01*
Y0516671D01*
X0484855Y0510295D02*
X0484330Y0509770D01*
Y0508721D01*
X0484855Y0508196D01*
X0486954D01*
X0487479Y0508721D01*
Y0509770D01*
X0486954Y0510295D01*
X0484855Y0511345D02*
X0484330Y0511869D01*
Y0512919D01*
X0484855Y0513444D01*
X0485380D01*
X0485904Y0512919D01*
X0486429Y0513444D01*
X0486954D01*
X0487479Y0512919D01*
Y0511869D01*
X0486954Y0511345D01*
X0486429D01*
X0485904Y0511869D01*
X0485380Y0511345D01*
X0484855D01*
X0485904Y0511869D02*
Y0512919D01*
X0484855Y0514493D02*
X0484330Y0515018D01*
Y0516068D01*
X0484855Y0516592D01*
X0485380D01*
X0485904Y0516068D01*
Y0515543D01*
Y0516068D01*
X0486429Y0516592D01*
X0486954D01*
X0487479Y0516068D01*
Y0515018D01*
X0486954Y0514493D01*
X0467491Y0430156D02*
X0466967Y0430681D01*
X0465917D01*
X0465392Y0430156D01*
Y0428057D01*
X0465917Y0427532D01*
X0466967D01*
X0467491Y0428057D01*
X0468541Y0430156D02*
X0469066Y0430681D01*
X0470115D01*
X0470640Y0430156D01*
Y0429631D01*
X0470115Y0429106D01*
X0470640Y0428582D01*
Y0428057D01*
X0470115Y0427532D01*
X0469066D01*
X0468541Y0428057D01*
Y0428582D01*
X0469066Y0429106D01*
X0468541Y0429631D01*
Y0430156D01*
X0469066Y0429106D02*
X0470115D01*
X0473789Y0427532D02*
X0471690D01*
X0473789Y0429631D01*
Y0430156D01*
X0473264Y0430681D01*
X0472214D01*
X0471690Y0430156D01*
X0554527Y0664664D02*
X0554002Y0665189D01*
X0552953D01*
X0552428Y0664664D01*
Y0662565D01*
X0552953Y0662040D01*
X0554002D01*
X0554527Y0662565D01*
X0555577Y0664664D02*
X0556101Y0665189D01*
X0557151D01*
X0557676Y0664664D01*
Y0664139D01*
X0557151Y0663615D01*
X0557676Y0663090D01*
Y0662565D01*
X0557151Y0662040D01*
X0556101D01*
X0555577Y0662565D01*
Y0663090D01*
X0556101Y0663615D01*
X0555577Y0664139D01*
Y0664664D01*
X0556101Y0663615D02*
X0557151D01*
X0558725Y0662040D02*
X0559775D01*
X0559250D01*
Y0665189D01*
X0558725Y0664664D01*
X0510577Y0443759D02*
X0510052Y0444283D01*
X0509003D01*
X0508478Y0443759D01*
Y0441660D01*
X0509003Y0441135D01*
X0510052D01*
X0510577Y0441660D01*
X0511627Y0443759D02*
X0512151Y0444283D01*
X0513201D01*
X0513726Y0443759D01*
Y0443234D01*
X0513201Y0442709D01*
X0513726Y0442184D01*
Y0441660D01*
X0513201Y0441135D01*
X0512151D01*
X0511627Y0441660D01*
Y0442184D01*
X0512151Y0442709D01*
X0511627Y0443234D01*
Y0443759D01*
X0512151Y0442709D02*
X0513201D01*
X0514775Y0443759D02*
X0515300Y0444283D01*
X0516349D01*
X0516874Y0443759D01*
Y0441660D01*
X0516349Y0441135D01*
X0515300D01*
X0514775Y0441660D01*
Y0443759D01*
X0432532Y0455649D02*
X0432007Y0455125D01*
Y0454075D01*
X0432532Y0453550D01*
X0434631D01*
X0435156Y0454075D01*
Y0455125D01*
X0434631Y0455649D01*
X0432007Y0456699D02*
Y0458798D01*
X0432532D01*
X0434631Y0456699D01*
X0435156D01*
X0432007Y0459847D02*
Y0461947D01*
X0432532D01*
X0434631Y0459847D01*
X0435156D01*
X0492296Y0492264D02*
X0491771Y0491739D01*
Y0490689D01*
X0492296Y0490165D01*
X0494395D01*
X0494920Y0490689D01*
Y0491739D01*
X0494395Y0492264D01*
X0491771Y0493313D02*
Y0495412D01*
X0492296D01*
X0494395Y0493313D01*
X0494920D01*
X0491771Y0498561D02*
X0492296Y0497511D01*
X0493345Y0496462D01*
X0494395D01*
X0494920Y0496986D01*
Y0498036D01*
X0494395Y0498561D01*
X0493870D01*
X0493345Y0498036D01*
Y0496462D01*
X0504868Y0501672D02*
X0504344Y0502197D01*
X0503294D01*
X0502769Y0501672D01*
Y0499573D01*
X0503294Y0499048D01*
X0504344D01*
X0504868Y0499573D01*
X0505918Y0502197D02*
X0508017D01*
Y0501672D01*
X0505918Y0499573D01*
Y0499048D01*
X0511166Y0502197D02*
X0509066D01*
Y0500623D01*
X0510116Y0501147D01*
X0510641D01*
X0511166Y0500623D01*
Y0499573D01*
X0510641Y0499048D01*
X0509591D01*
X0509066Y0499573D01*
X0507703Y0469861D02*
X0507178Y0470386D01*
X0506129D01*
X0505604Y0469861D01*
Y0467762D01*
X0506129Y0467237D01*
X0507178D01*
X0507703Y0467762D01*
X0508752Y0470386D02*
X0510852D01*
Y0469861D01*
X0508752Y0467762D01*
Y0467237D01*
X0513475D02*
Y0470386D01*
X0511901Y0468811D01*
X0514000D01*
X0503162Y0473327D02*
X0502637Y0472802D01*
Y0471752D01*
X0503162Y0471228D01*
X0505261D01*
X0505786Y0471752D01*
Y0472802D01*
X0505261Y0473327D01*
X0502637Y0474376D02*
Y0476475D01*
X0503162D01*
X0505261Y0474376D01*
X0505786D01*
X0503162Y0477525D02*
X0502637Y0478049D01*
Y0479099D01*
X0503162Y0479624D01*
X0503687D01*
X0504212Y0479099D01*
Y0478574D01*
Y0479099D01*
X0504736Y0479624D01*
X0505261D01*
X0505786Y0479099D01*
Y0478049D01*
X0505261Y0477525D01*
X0492270Y0458877D02*
X0491745Y0459402D01*
X0490696D01*
X0490171Y0458877D01*
Y0456778D01*
X0490696Y0456253D01*
X0491745D01*
X0492270Y0456778D01*
X0493320Y0459402D02*
X0495419D01*
Y0458877D01*
X0493320Y0456778D01*
Y0456253D01*
X0498567D02*
X0496468D01*
X0498567Y0458352D01*
Y0458877D01*
X0498042Y0459402D01*
X0496993D01*
X0496468Y0458877D01*
X0509842Y0463168D02*
X0509317Y0463693D01*
X0508268D01*
X0507743Y0463168D01*
Y0461069D01*
X0508268Y0460544D01*
X0509317D01*
X0509842Y0461069D01*
X0510891Y0463693D02*
X0512991D01*
Y0463168D01*
X0510891Y0461069D01*
Y0460544D01*
X0514040D02*
X0515090D01*
X0514565D01*
Y0463693D01*
X0514040Y0463168D01*
X0411180Y0530885D02*
X0410656Y0531409D01*
X0409606D01*
X0409082Y0530885D01*
Y0528786D01*
X0409606Y0528261D01*
X0410656D01*
X0411180Y0528786D01*
X0414329Y0531409D02*
X0413280Y0530885D01*
X0412230Y0529835D01*
Y0528786D01*
X0412755Y0528261D01*
X0413804D01*
X0414329Y0528786D01*
Y0529310D01*
X0413804Y0529835D01*
X0412230D01*
X0415379Y0528261D02*
X0416428D01*
X0415903D01*
Y0531409D01*
X0415379Y0530885D01*
X0422900Y0530530D02*
X0422375Y0531055D01*
X0421326D01*
X0420801Y0530530D01*
Y0528431D01*
X0421326Y0527906D01*
X0422375D01*
X0422900Y0528431D01*
X0426048Y0531055D02*
X0424999Y0530530D01*
X0423949Y0529481D01*
Y0528431D01*
X0424474Y0527906D01*
X0425524D01*
X0426048Y0528431D01*
Y0528956D01*
X0425524Y0529481D01*
X0423949D01*
X0427098Y0530530D02*
X0427623Y0531055D01*
X0428672D01*
X0429197Y0530530D01*
Y0528431D01*
X0428672Y0527906D01*
X0427623D01*
X0427098Y0528431D01*
Y0530530D01*
X0503097Y0659585D02*
X0502572Y0660110D01*
X0501522D01*
X0500998Y0659585D01*
Y0657486D01*
X0501522Y0656961D01*
X0502572D01*
X0503097Y0657486D01*
X0506245Y0660110D02*
X0504146D01*
Y0658536D01*
X0505196Y0659061D01*
X0505721D01*
X0506245Y0658536D01*
Y0657486D01*
X0505721Y0656961D01*
X0504671D01*
X0504146Y0657486D01*
X0508869Y0656961D02*
Y0660110D01*
X0507295Y0658536D01*
X0509394D01*
X0504002Y0417893D02*
X0503477Y0418417D01*
X0502428D01*
X0501903Y0417893D01*
Y0415793D01*
X0502428Y0415269D01*
X0503477D01*
X0504002Y0415793D01*
X0507151Y0418417D02*
X0505052D01*
Y0416843D01*
X0506101Y0417368D01*
X0506626D01*
X0507151Y0416843D01*
Y0415793D01*
X0506626Y0415269D01*
X0505577D01*
X0505052Y0415793D01*
X0508200Y0417893D02*
X0508725Y0418417D01*
X0509775D01*
X0510299Y0417893D01*
Y0415793D01*
X0509775Y0415269D01*
X0508725D01*
X0508200Y0415793D01*
Y0417893D01*
X0479225Y0412460D02*
X0478700Y0411936D01*
Y0410886D01*
X0479225Y0410361D01*
X0481324D01*
X0481849Y0410886D01*
Y0411936D01*
X0481324Y0412460D01*
X0481849Y0415084D02*
X0478700D01*
X0480274Y0413510D01*
Y0415609D01*
X0481324Y0416658D02*
X0481849Y0417183D01*
Y0418233D01*
X0481324Y0418758D01*
X0479225D01*
X0478700Y0418233D01*
Y0417183D01*
X0479225Y0416658D01*
X0479750D01*
X0480274Y0417183D01*
Y0418758D01*
X0442231Y0624467D02*
X0441706Y0624992D01*
X0440656D01*
X0440132Y0624467D01*
Y0622368D01*
X0440656Y0621843D01*
X0441706D01*
X0442231Y0622368D01*
X0444854Y0621843D02*
Y0624992D01*
X0443280Y0623418D01*
X0445379D01*
X0446429Y0624467D02*
X0446953Y0624992D01*
X0448003D01*
X0448528Y0624467D01*
Y0623943D01*
X0448003Y0623418D01*
X0448528Y0622893D01*
Y0622368D01*
X0448003Y0621843D01*
X0446953D01*
X0446429Y0622368D01*
Y0622893D01*
X0446953Y0623418D01*
X0446429Y0623943D01*
Y0624467D01*
X0446953Y0623418D02*
X0448003D01*
X0428753Y0609271D02*
X0428228Y0608747D01*
Y0607697D01*
X0428753Y0607172D01*
X0430852D01*
X0431376Y0607697D01*
Y0608747D01*
X0430852Y0609271D01*
X0431376Y0611895D02*
X0428228D01*
X0429802Y0610321D01*
Y0612420D01*
X0428228Y0613470D02*
Y0615569D01*
X0428753D01*
X0430852Y0613470D01*
X0431376D01*
X0442073Y0630766D02*
X0441548Y0631291D01*
X0440499D01*
X0439974Y0630766D01*
Y0628667D01*
X0440499Y0628143D01*
X0441548D01*
X0442073Y0628667D01*
X0444697Y0628143D02*
Y0631291D01*
X0443123Y0629717D01*
X0445222D01*
X0447846Y0628143D02*
Y0631291D01*
X0446271Y0629717D01*
X0448370D01*
X0490774Y0655451D02*
X0490249Y0655976D01*
X0489200D01*
X0488675Y0655451D01*
Y0653352D01*
X0489200Y0652828D01*
X0490249D01*
X0490774Y0653352D01*
X0493398Y0652828D02*
Y0655976D01*
X0491823Y0654402D01*
X0493923D01*
X0494972Y0655451D02*
X0495497Y0655976D01*
X0496546D01*
X0497071Y0655451D01*
Y0653352D01*
X0496546Y0652828D01*
X0495497D01*
X0494972Y0653352D01*
Y0655451D01*
X0405459Y0630491D02*
X0404934Y0631016D01*
X0403885D01*
X0403360Y0630491D01*
Y0628392D01*
X0403885Y0627867D01*
X0404934D01*
X0405459Y0628392D01*
X0406508Y0630491D02*
X0407033Y0631016D01*
X0408083D01*
X0408607Y0630491D01*
Y0629966D01*
X0408083Y0629441D01*
X0407558D01*
X0408083D01*
X0408607Y0628917D01*
Y0628392D01*
X0408083Y0627867D01*
X0407033D01*
X0406508Y0628392D01*
X0409657D02*
X0410182Y0627867D01*
X0411231D01*
X0411756Y0628392D01*
Y0630491D01*
X0411231Y0631016D01*
X0410182D01*
X0409657Y0630491D01*
Y0629966D01*
X0410182Y0629441D01*
X0411756D01*
X0402112Y0554861D02*
X0401588Y0555386D01*
X0400538D01*
X0400013Y0554861D01*
Y0552762D01*
X0400538Y0552237D01*
X0401588D01*
X0402112Y0552762D01*
X0403162Y0554861D02*
X0403687Y0555386D01*
X0404736D01*
X0405261Y0554861D01*
Y0554336D01*
X0404736Y0553811D01*
X0404212D01*
X0404736D01*
X0405261Y0553287D01*
Y0552762D01*
X0404736Y0552237D01*
X0403687D01*
X0403162Y0552762D01*
X0406311Y0555386D02*
X0408410D01*
Y0554861D01*
X0406311Y0552762D01*
Y0552237D01*
X0413687Y0548522D02*
X0413163Y0549047D01*
X0412113D01*
X0411588Y0548522D01*
Y0546423D01*
X0412113Y0545899D01*
X0413163D01*
X0413687Y0546423D01*
X0414737Y0548522D02*
X0415262Y0549047D01*
X0416311D01*
X0416836Y0548522D01*
Y0547998D01*
X0416311Y0547473D01*
X0415786D01*
X0416311D01*
X0416836Y0546948D01*
Y0546423D01*
X0416311Y0545899D01*
X0415262D01*
X0414737Y0546423D01*
X0419984Y0549047D02*
X0418935Y0548522D01*
X0417885Y0547473D01*
Y0546423D01*
X0418410Y0545899D01*
X0419460D01*
X0419984Y0546423D01*
Y0546948D01*
X0419460Y0547473D01*
X0417885D01*
X0413359Y0583799D02*
X0412834Y0583274D01*
Y0582225D01*
X0413359Y0581700D01*
X0415458D01*
X0415983Y0582225D01*
Y0583274D01*
X0415458Y0583799D01*
X0413359Y0584848D02*
X0412834Y0585373D01*
Y0586423D01*
X0413359Y0586948D01*
X0413884D01*
X0414408Y0586423D01*
Y0585898D01*
Y0586423D01*
X0414933Y0586948D01*
X0415458D01*
X0415983Y0586423D01*
Y0585373D01*
X0415458Y0584848D01*
X0412834Y0590096D02*
Y0587997D01*
X0414408D01*
X0413884Y0589047D01*
Y0589571D01*
X0414408Y0590096D01*
X0415458D01*
X0415983Y0589571D01*
Y0588522D01*
X0415458Y0587997D01*
X0392270Y0580058D02*
X0391745Y0580583D01*
X0390696D01*
X0390171Y0580058D01*
Y0577959D01*
X0390696Y0577434D01*
X0391745D01*
X0392270Y0577959D01*
X0393320Y0580058D02*
X0393844Y0580583D01*
X0394894D01*
X0395419Y0580058D01*
Y0579533D01*
X0394894Y0579008D01*
X0394369D01*
X0394894D01*
X0395419Y0578483D01*
Y0577959D01*
X0394894Y0577434D01*
X0393844D01*
X0393320Y0577959D01*
X0398042Y0577434D02*
Y0580583D01*
X0396468Y0579008D01*
X0398567D01*
X0435852Y0550885D02*
X0435327Y0551409D01*
X0434278D01*
X0433753Y0550885D01*
Y0548785D01*
X0434278Y0548261D01*
X0435327D01*
X0435852Y0548785D01*
X0438476Y0548261D02*
Y0551409D01*
X0436902Y0549835D01*
X0439001D01*
X0571797Y0585609D02*
X0571272Y0586134D01*
X0570223D01*
X0569698Y0585609D01*
Y0583510D01*
X0570223Y0582985D01*
X0571272D01*
X0571797Y0583510D01*
X0572847Y0585609D02*
X0573371Y0586134D01*
X0574421D01*
X0574946Y0585609D01*
Y0585084D01*
X0574421Y0584559D01*
X0573896D01*
X0574421D01*
X0574946Y0584035D01*
Y0583510D01*
X0574421Y0582985D01*
X0573371D01*
X0572847Y0583510D01*
X0563805Y0585885D02*
X0563280Y0586409D01*
X0562231D01*
X0561706Y0585885D01*
Y0583785D01*
X0562231Y0583261D01*
X0563280D01*
X0563805Y0583785D01*
X0566954Y0583261D02*
X0564854D01*
X0566954Y0585360D01*
Y0585885D01*
X0566429Y0586409D01*
X0565379D01*
X0564854Y0585885D01*
X0447361Y0561278D02*
X0446836Y0561803D01*
X0445787D01*
X0445262Y0561278D01*
Y0559179D01*
X0445787Y0558654D01*
X0446836D01*
X0447361Y0559179D01*
X0448411Y0558654D02*
X0449460D01*
X0448935D01*
Y0561803D01*
X0448411Y0561278D01*
X0478936Y0439364D02*
X0481560D01*
X0482085Y0439889D01*
Y0440938D01*
X0481560Y0441463D01*
X0478936D01*
X0482085Y0442513D02*
Y0443562D01*
Y0443037D01*
X0478936D01*
X0479461Y0442513D01*
Y0445136D02*
X0478936Y0445661D01*
Y0446711D01*
X0479461Y0447235D01*
X0481560D01*
X0482085Y0446711D01*
Y0445661D01*
X0481560Y0445136D01*
X0479461D01*
X0482152Y0594782D02*
X0481627Y0595307D01*
X0480578D01*
X0480053Y0594782D01*
Y0592683D01*
X0480578Y0592158D01*
X0481627D01*
X0482152Y0592683D01*
X0485300Y0595307D02*
X0483201D01*
Y0593733D01*
X0484251Y0594257D01*
X0484776D01*
X0485300Y0593733D01*
Y0592683D01*
X0484776Y0592158D01*
X0483726D01*
X0483201Y0592683D01*
X0486350D02*
X0486875Y0592158D01*
X0487924D01*
X0488449Y0592683D01*
Y0594782D01*
X0487924Y0595307D01*
X0486875D01*
X0486350Y0594782D01*
Y0594257D01*
X0486875Y0593733D01*
X0488449D01*
X0551037Y0577945D02*
X0553136Y0574796D01*
Y0577945D02*
X0551037Y0574796D01*
X0555759D02*
Y0577945D01*
X0554185Y0576370D01*
X0556284D01*
X0495628Y0580149D02*
X0493005D01*
X0492480Y0579624D01*
Y0578574D01*
X0493005Y0578050D01*
X0495628D01*
X0492480Y0577000D02*
Y0575951D01*
Y0576475D01*
X0495628D01*
X0495104Y0577000D01*
X0492480Y0572802D02*
X0495628D01*
X0494054Y0574376D01*
Y0572277D01*
X0515918Y0547669D02*
Y0545045D01*
X0516443Y0544521D01*
X0517493D01*
X0518017Y0545045D01*
Y0547669D01*
X0521166D02*
X0519067D01*
Y0546095D01*
X0520117Y0546620D01*
X0520641D01*
X0521166Y0546095D01*
Y0545045D01*
X0520641Y0544521D01*
X0519592D01*
X0519067Y0545045D01*
X0498674Y0559677D02*
Y0557053D01*
X0499199Y0556529D01*
X0500249D01*
X0500773Y0557053D01*
Y0559677D01*
X0503397Y0556529D02*
Y0559677D01*
X0501823Y0558103D01*
X0503922D01*
X0500078Y0532369D02*
X0502702D01*
X0503227Y0532894D01*
Y0533943D01*
X0502702Y0534468D01*
X0500078D01*
X0500603Y0535517D02*
X0500078Y0536042D01*
Y0537092D01*
X0500603Y0537616D01*
X0501128D01*
X0501652Y0537092D01*
Y0536567D01*
Y0537092D01*
X0502177Y0537616D01*
X0502702D01*
X0503227Y0537092D01*
Y0536042D01*
X0502702Y0535517D01*
X0556313Y0568891D02*
Y0572039D01*
X0557887D01*
X0558412Y0571515D01*
Y0570465D01*
X0557887Y0569940D01*
X0556313D01*
X0557362D02*
X0558412Y0568891D01*
X0561560D02*
X0559461D01*
X0561560Y0570990D01*
Y0571515D01*
X0561035Y0572039D01*
X0559986D01*
X0559461Y0571515D01*
X0562610Y0569415D02*
X0563135Y0568891D01*
X0564184D01*
X0564709Y0569415D01*
Y0571515D01*
X0564184Y0572039D01*
X0563135D01*
X0562610Y0571515D01*
Y0570990D01*
X0563135Y0570465D01*
X0564709D01*
X0519370Y0554154D02*
X0522518D01*
Y0556253D01*
Y0559402D02*
Y0557302D01*
X0520419Y0559402D01*
X0519894D01*
X0519370Y0558877D01*
Y0557827D01*
X0519894Y0557302D01*
X0522518Y0560451D02*
Y0561501D01*
Y0560976D01*
X0519370D01*
X0519894Y0560451D01*
X0495039Y0532356D02*
X0498187D01*
Y0534455D01*
Y0535505D02*
Y0536554D01*
Y0536029D01*
X0495039D01*
X0495564Y0535505D01*
X0495039Y0540228D02*
X0495564Y0539178D01*
X0496613Y0538128D01*
X0497663D01*
X0498187Y0538653D01*
Y0539703D01*
X0497663Y0540228D01*
X0497138D01*
X0496613Y0539703D01*
Y0538128D01*
X0556377Y0536962D02*
X0559526D01*
Y0539061D01*
Y0540111D02*
Y0541160D01*
Y0540636D01*
X0556377D01*
X0556902Y0540111D01*
X0559526Y0544309D02*
X0556377D01*
X0557952Y0542735D01*
Y0544834D01*
X0549461Y0560295D02*
X0548936Y0559770D01*
Y0558721D01*
X0549461Y0558196D01*
X0551560D01*
X0552085Y0558721D01*
Y0559770D01*
X0551560Y0560295D01*
X0549461Y0561345D02*
X0548936Y0561869D01*
Y0562919D01*
X0549461Y0563444D01*
X0549986D01*
X0550511Y0562919D01*
X0551035Y0563444D01*
X0551560D01*
X0552085Y0562919D01*
Y0561869D01*
X0551560Y0561345D01*
X0551035D01*
X0550511Y0561869D01*
X0549986Y0561345D01*
X0549461D01*
X0550511Y0561869D02*
Y0562919D01*
X0548936Y0566592D02*
X0549461Y0565543D01*
X0550511Y0564493D01*
X0551560D01*
X0552085Y0565018D01*
Y0566068D01*
X0551560Y0566592D01*
X0551035D01*
X0550511Y0566068D01*
Y0564493D01*
X0483805Y0578562D02*
X0483281Y0579086D01*
X0482231D01*
X0481706Y0578562D01*
Y0576463D01*
X0482231Y0575938D01*
X0483281D01*
X0483805Y0576463D01*
X0486954Y0579086D02*
X0484855D01*
Y0577512D01*
X0485904Y0578037D01*
X0486429D01*
X0486954Y0577512D01*
Y0576463D01*
X0486429Y0575938D01*
X0485380D01*
X0484855Y0576463D01*
X0488003Y0578562D02*
X0488528Y0579086D01*
X0489578D01*
X0490102Y0578562D01*
Y0578037D01*
X0489578Y0577512D01*
X0490102Y0576988D01*
Y0576463D01*
X0489578Y0575938D01*
X0488528D01*
X0488003Y0576463D01*
Y0576988D01*
X0488528Y0577512D01*
X0488003Y0578037D01*
Y0578562D01*
X0488528Y0577512D02*
X0489578D01*
X0518320Y0565964D02*
X0517795Y0565440D01*
Y0564390D01*
X0518320Y0563865D01*
X0520419D01*
X0520943Y0564390D01*
Y0565440D01*
X0520419Y0565964D01*
X0517795Y0569113D02*
Y0567014D01*
X0519369D01*
X0518844Y0568063D01*
Y0568588D01*
X0519369Y0569113D01*
X0520419D01*
X0520943Y0568588D01*
Y0567539D01*
X0520419Y0567014D01*
X0517795Y0572261D02*
Y0570162D01*
X0519369D01*
X0518844Y0571212D01*
Y0571737D01*
X0519369Y0572261D01*
X0520419D01*
X0520943Y0571737D01*
Y0570687D01*
X0520419Y0570162D01*
X0527689Y0629967D02*
X0528213Y0629442D01*
X0529263D01*
X0529788Y0629967D01*
Y0632066D01*
X0529263Y0632590D01*
X0528213D01*
X0527689Y0632066D01*
X0524540Y0629442D02*
X0526639D01*
Y0631016D01*
X0525590Y0630491D01*
X0525065D01*
X0524540Y0631016D01*
Y0632066D01*
X0525065Y0632590D01*
X0526114D01*
X0526639Y0632066D01*
X0521391Y0632590D02*
X0523490D01*
X0521391Y0630491D01*
Y0629967D01*
X0521916Y0629442D01*
X0522966D01*
X0523490Y0629967D01*
X0543949Y0631371D02*
X0543425Y0630846D01*
Y0629797D01*
X0543949Y0629272D01*
X0546048D01*
X0546573Y0629797D01*
Y0630846D01*
X0546048Y0631371D01*
X0543425Y0634520D02*
Y0632420D01*
X0544999D01*
X0544474Y0633470D01*
Y0633995D01*
X0544999Y0634520D01*
X0546048D01*
X0546573Y0633995D01*
Y0632945D01*
X0546048Y0632420D01*
X0546573Y0635569D02*
Y0636619D01*
Y0636094D01*
X0543425D01*
X0543949Y0635569D01*
X0494317Y0552853D02*
X0493792Y0553378D01*
X0492743D01*
X0492218Y0552853D01*
Y0550754D01*
X0492743Y0550229D01*
X0493792D01*
X0494317Y0550754D01*
X0496941Y0550229D02*
Y0553378D01*
X0495367Y0551804D01*
X0497466D01*
X0498515Y0552853D02*
X0499040Y0553378D01*
X0500090D01*
X0500614Y0552853D01*
Y0552328D01*
X0500090Y0551804D01*
X0499565D01*
X0500090D01*
X0500614Y0551279D01*
Y0550754D01*
X0500090Y0550229D01*
X0499040D01*
X0498515Y0550754D01*
X0499357Y0563129D02*
X0498832Y0563653D01*
X0497782D01*
X0497258Y0563129D01*
Y0561030D01*
X0497782Y0560505D01*
X0498832D01*
X0499357Y0561030D01*
X0501980Y0560505D02*
Y0563653D01*
X0500406Y0562079D01*
X0502505D01*
X0505654Y0560505D02*
X0503555D01*
X0505654Y0562604D01*
Y0563129D01*
X0505129Y0563653D01*
X0504079D01*
X0503555Y0563129D01*
X0489225Y0534481D02*
X0488700Y0533956D01*
Y0532907D01*
X0489225Y0532382D01*
X0491324D01*
X0491849Y0532907D01*
Y0533956D01*
X0491324Y0534481D01*
X0491849Y0537105D02*
X0488700D01*
X0490274Y0535531D01*
Y0537630D01*
X0491849Y0538679D02*
Y0539729D01*
Y0539204D01*
X0488700D01*
X0489225Y0538679D01*
X0504697Y0529626D02*
X0504173Y0529101D01*
Y0528052D01*
X0504697Y0527527D01*
X0506797D01*
X0507321Y0528052D01*
Y0529101D01*
X0506797Y0529626D01*
X0504697Y0530675D02*
X0504173Y0531200D01*
Y0532250D01*
X0504697Y0532774D01*
X0505222D01*
X0505747Y0532250D01*
Y0531725D01*
Y0532250D01*
X0506272Y0532774D01*
X0506797D01*
X0507321Y0532250D01*
Y0531200D01*
X0506797Y0530675D01*
X0504697Y0533824D02*
X0504173Y0534349D01*
Y0535398D01*
X0504697Y0535923D01*
X0505222D01*
X0505747Y0535398D01*
X0506272Y0535923D01*
X0506797D01*
X0507321Y0535398D01*
Y0534349D01*
X0506797Y0533824D01*
X0506272D01*
X0505747Y0534349D01*
X0505222Y0533824D01*
X0504697D01*
X0505747Y0534349D02*
Y0535398D01*
X0547375Y0538720D02*
X0546850Y0538196D01*
Y0537146D01*
X0547375Y0536621D01*
X0549474D01*
X0549998Y0537146D01*
Y0538196D01*
X0549474Y0538720D01*
X0547375Y0539770D02*
X0546850Y0540295D01*
Y0541344D01*
X0547375Y0541869D01*
X0547899D01*
X0548424Y0541344D01*
Y0540819D01*
Y0541344D01*
X0548949Y0541869D01*
X0549474D01*
X0549998Y0541344D01*
Y0540295D01*
X0549474Y0539770D01*
X0549998Y0545017D02*
Y0542918D01*
X0547899Y0545017D01*
X0547375D01*
X0546850Y0544493D01*
Y0543443D01*
X0547375Y0542918D01*
X0552571Y0542473D02*
X0552047Y0541949D01*
Y0540899D01*
X0552571Y0540374D01*
X0554670D01*
X0555195Y0540899D01*
Y0541949D01*
X0554670Y0542473D01*
X0552571Y0543523D02*
X0552047Y0544048D01*
Y0545097D01*
X0552571Y0545622D01*
X0553096D01*
X0553621Y0545097D01*
Y0544572D01*
Y0545097D01*
X0554146Y0545622D01*
X0554670D01*
X0555195Y0545097D01*
Y0544048D01*
X0554670Y0543523D01*
X0555195Y0546671D02*
Y0547721D01*
Y0547196D01*
X0552047D01*
X0552571Y0546671D01*
X0424526Y0711188D02*
X0422427D01*
X0421377Y0712237D01*
X0422427Y0713287D01*
X0424526D01*
X0422952D01*
Y0711188D01*
X0421902Y0714336D02*
X0421377Y0714861D01*
Y0715910D01*
X0421902Y0716435D01*
X0422427D01*
X0422952Y0715910D01*
Y0715386D01*
Y0715910D01*
X0423476Y0716435D01*
X0424001D01*
X0424526Y0715910D01*
Y0714861D01*
X0424001Y0714336D01*
X0490630Y0398063D02*
Y0395439D01*
X0491155Y0394914D01*
X0492204D01*
X0492729Y0395439D01*
Y0398063D01*
X0493779Y0394914D02*
X0494828D01*
X0494304D01*
Y0398063D01*
X0493779Y0397538D01*
X0498502Y0398063D02*
X0497452Y0397538D01*
X0496403Y0396489D01*
Y0395439D01*
X0496927Y0394914D01*
X0497977D01*
X0498502Y0395439D01*
Y0395964D01*
X0497977Y0396489D01*
X0496403D01*
X0445131Y0416882D02*
Y0413733D01*
X0446705D01*
X0447230Y0414258D01*
Y0416357D01*
X0446705Y0416882D01*
X0445131D01*
X0448280Y0416357D02*
X0448804Y0416882D01*
X0449854D01*
X0450379Y0416357D01*
Y0415832D01*
X0449854Y0415308D01*
X0449329D01*
X0449854D01*
X0450379Y0414783D01*
Y0414258D01*
X0449854Y0413733D01*
X0448804D01*
X0448280Y0414258D01*
X0565170Y0560977D02*
Y0563076D01*
X0566220Y0564126D01*
X0567269Y0563076D01*
Y0560977D01*
Y0562552D01*
X0565170D01*
X0570418Y0560977D02*
X0568319D01*
X0570418Y0563076D01*
Y0563601D01*
X0569893Y0564126D01*
X0568844D01*
X0568319Y0563601D01*
X0524160Y0518339D02*
Y0521488D01*
X0525735D01*
X0526259Y0520963D01*
Y0519914D01*
X0525735Y0519389D01*
X0524160D01*
X0525210D02*
X0526259Y0518339D01*
X0527309Y0520963D02*
X0527834Y0521488D01*
X0528883D01*
X0529408Y0520963D01*
Y0520439D01*
X0528883Y0519914D01*
X0528358D01*
X0528883D01*
X0529408Y0519389D01*
Y0518864D01*
X0528883Y0518339D01*
X0527834D01*
X0527309Y0518864D01*
X0530457Y0518339D02*
X0531507D01*
X0530982D01*
Y0521488D01*
X0530457Y0520963D01*
X0470576Y0381374D02*
X0469527D01*
X0470052D01*
Y0378751D01*
X0469527Y0378226D01*
X0469002D01*
X0468477Y0378751D01*
X0473200Y0378226D02*
Y0381374D01*
X0471626Y0379800D01*
X0473725D01*
X0504226Y0637236D02*
Y0634612D01*
X0504751Y0634088D01*
X0505800D01*
X0506325Y0634612D01*
Y0637236D01*
X0509474Y0634088D02*
X0507375D01*
X0509474Y0636187D01*
Y0636711D01*
X0508949Y0637236D01*
X0507899D01*
X0507375Y0636711D01*
X0512622Y0637236D02*
X0510523D01*
Y0635662D01*
X0511573Y0636187D01*
X0512098D01*
X0512622Y0635662D01*
Y0634612D01*
X0512098Y0634088D01*
X0511048D01*
X0510523Y0634612D01*
X0378872Y0569441D02*
Y0566817D01*
X0379396Y0566292D01*
X0380446D01*
X0380971Y0566817D01*
Y0569441D01*
X0384119Y0566292D02*
X0382020D01*
X0384119Y0568391D01*
Y0568916D01*
X0383595Y0569441D01*
X0382545D01*
X0382020Y0568916D01*
X0385169D02*
X0385694Y0569441D01*
X0386743D01*
X0387268Y0568916D01*
Y0566817D01*
X0386743Y0566292D01*
X0385694D01*
X0385169Y0566817D01*
Y0568916D01*
X0546181Y0571370D02*
Y0568746D01*
X0546706Y0568221D01*
X0547756D01*
X0548280Y0568746D01*
Y0571370D01*
X0549330Y0568221D02*
X0550379D01*
X0549855D01*
Y0571370D01*
X0549330Y0570845D01*
X0554053Y0568221D02*
X0551954D01*
X0554053Y0570320D01*
Y0570845D01*
X0553528Y0571370D01*
X0552479D01*
X0551954Y0570845D01*
X0475249Y0642158D02*
Y0645307D01*
X0476823D01*
X0477348Y0644782D01*
Y0643733D01*
X0476823Y0643208D01*
X0475249D01*
X0480497Y0642158D02*
X0478398D01*
X0480497Y0644257D01*
Y0644782D01*
X0479972Y0645307D01*
X0478923D01*
X0478398Y0644782D01*
M02*
